<svg xmlns="http://www.w3.org/2000/svg" xmlns:xlink="http://www.w3.org/1999/xlink" viewBox="0 0 660 450"><defs><style>.cls-1{isolation:isolate;}.cls-2{fill:#6d6da0;}.cls-102,.cls-103,.cls-104,.cls-105,.cls-106,.cls-107,.cls-108,.cls-109,.cls-3{opacity:0.4;}.cls-101,.cls-28,.cls-3,.cls-44,.cls-49,.cls-52,.cls-58,.cls-60,.cls-61,.cls-67{mix-blend-mode:multiply;}.cls-3{fill:url(#linear-gradient);}.cls-37,.cls-4,.cls-78,.cls-80,.cls-82,.cls-84{opacity:0.5;}.cls-17,.cls-19,.cls-27,.cls-32,.cls-4{mix-blend-mode:color-dodge;}.cls-4{fill:url(#radial-gradient);}.cls-5{opacity:0.2;}.cls-6{opacity:0;}.cls-7{opacity:0.09;}.cls-8{opacity:0.18;}.cls-9{opacity:0.27;}.cls-10{opacity:0.36;}.cls-11{opacity:0.45;}.cls-12{opacity:0.55;}.cls-13{opacity:0.64;}.cls-14{opacity:0.73;}.cls-15{opacity:0.82;}.cls-16{opacity:0.91;}.cls-17{fill:url(#radial-gradient-2);}.cls-18{fill:url(#linear-gradient-2);}.cls-19{fill:url(#radial-gradient-3);}.cls-20{opacity:0.6;fill:url(#radial-gradient-4);}.cls-20,.cls-43,.cls-48,.cls-59,.cls-74,.cls-78,.cls-79,.cls-80,.cls-81,.cls-82,.cls-83,.cls-84,.cls-85,.cls-90{mix-blend-mode:screen;}.cls-21{fill:url(#linear-gradient-3);}.cls-22{fill:url(#linear-gradient-4);}.cls-23{fill:url(#linear-gradient-5);}.cls-24{fill:url(#New_Gradient_Swatch_copy_26);}.cls-25{fill:url(#linear-gradient-6);}.cls-26{fill:url(#linear-gradient-7);}.cls-27{fill:url(#radial-gradient-5);}.cls-28{fill:#bcbec0;}.cls-29{opacity:0.8;}.cls-30{fill:url(#linear-gradient-8);}.cls-31{fill:#a56ef4;}.cls-32{fill:url(#radial-gradient-6);}.cls-33{fill:url(#radial-gradient-7);}.cls-34{fill:#dc3daa;}.cls-35{fill:#ff63ce;}.cls-36{fill:#fff;}.cls-38{fill:#f1f2f2;}.cls-39{opacity:0.3;}.cls-40{fill:#9c5f56;}.cls-41{fill:url(#linear-gradient-9);}.cls-42{fill:url(#linear-gradient-10);}.cls-43{fill:url(#Radial_Gradient_1);}.cls-44{fill:url(#linear-gradient-11);}.cls-45{fill:url(#linear-gradient-12);}.cls-46{fill:url(#linear-gradient-13);}.cls-47{fill:url(#linear-gradient-14);}.cls-48{fill:url(#Radial_Gradient_1-2);}.cls-49{fill:url(#linear-gradient-15);}.cls-50{fill:url(#linear-gradient-16);}.cls-51{fill:url(#New_Gradient_Swatch_copy_20);}.cls-52{fill:#e8dcdc;}.cls-53{fill:url(#New_Gradient_Swatch_copy_20-2);}.cls-54{fill:url(#linear-gradient-17);}.cls-55{fill:url(#linear-gradient-18);}.cls-56{fill:url(#linear-gradient-19);}.cls-57{fill:url(#linear-gradient-20);}.cls-58{fill:url(#linear-gradient-21);}.cls-59{fill:url(#linear-gradient-22);}.cls-60{fill:url(#linear-gradient-23);}.cls-61{fill:url(#linear-gradient-24);}.cls-62{fill:url(#linear-gradient-25);}.cls-63{fill:url(#linear-gradient-26);}.cls-64{fill:url(#linear-gradient-27);}.cls-65{fill:url(#linear-gradient-28);}.cls-66{fill:url(#linear-gradient-29);}.cls-67{fill:url(#linear-gradient-30);}.cls-68{fill:url(#linear-gradient-31);}.cls-69{fill:url(#linear-gradient-32);}.cls-70{fill:url(#linear-gradient-33);}.cls-71{fill:url(#linear-gradient-34);}.cls-72{fill:url(#New_Gradient_Swatch_copy_15);}.cls-73{fill:url(#New_Gradient_Swatch_copy_20-3);}.cls-74{fill:url(#linear-gradient-35);}.cls-75{fill:url(#linear-gradient-36);}.cls-76{fill:url(#linear-gradient-37);}.cls-100,.cls-77,.cls-79,.cls-81,.cls-83,.cls-85,.cls-97,.cls-98,.cls-99{opacity:0.7;}.cls-77{fill:url(#linear-gradient-38);}.cls-78{fill:url(#linear-gradient-39);}.cls-79{fill:url(#linear-gradient-40);}.cls-80{fill:url(#linear-gradient-41);}.cls-81{fill:url(#linear-gradient-42);}.cls-82{fill:url(#linear-gradient-43);}.cls-83{fill:url(#linear-gradient-44);}.cls-84{fill:url(#linear-gradient-45);}.cls-85{fill:url(#linear-gradient-46);}.cls-86{fill:url(#linear-gradient-47);}.cls-87{fill:url(#New_Gradient_Swatch_copy_8);}.cls-88{fill:url(#New_Gradient_Swatch_copy_8-2);}.cls-89{fill:url(#New_Gradient_Swatch_copy_20-4);}.cls-90{fill:url(#linear-gradient-48);}.cls-91{fill:url(#linear-gradient-49);}.cls-92{fill:url(#linear-gradient-50);}.cls-93{fill:url(#New_Gradient_Swatch_copy_7);}.cls-94{fill:url(#New_Gradient_Swatch_copy_7-2);}.cls-95{fill:url(#linear-gradient-51);}.cls-96{fill:url(#linear-gradient-52);}.cls-97{fill:url(#linear-gradient-53);}.cls-98{fill:url(#linear-gradient-54);}.cls-99{fill:url(#linear-gradient-55);}.cls-100{fill:url(#linear-gradient-56);}.cls-102{fill:url(#linear-gradient-57);}.cls-103{fill:url(#linear-gradient-58);}.cls-104{fill:url(#linear-gradient-59);}.cls-105{fill:url(#linear-gradient-60);}.cls-106{fill:url(#New_Gradient_Swatch_copy_26-2);}.cls-107{fill:url(#New_Gradient_Swatch_copy_26-3);}.cls-108{fill:url(#New_Gradient_Swatch_copy_26-4);}.cls-109{fill:url(#New_Gradient_Swatch_copy_26-5);}</style><linearGradient id="linear-gradient" x1="134.09" y1="358.06" x2="390.32" y2="358.06" gradientUnits="userSpaceOnUse"><stop offset="0.02" stop-color="#45108a"/><stop offset="1" stop-color="#3d065f"/></linearGradient><radialGradient id="radial-gradient" cx="-1191.29" cy="-165.49" r="215.71" gradientTransform="translate(1212.52 380.18) scale(0.7 0.9)" gradientUnits="userSpaceOnUse"><stop offset="0" stop-color="#fa45c1"/><stop offset="0.21" stop-color="#cb389d"/><stop offset="0.67" stop-color="#571843"/><stop offset="1"/></radialGradient><radialGradient id="radial-gradient-2" cx="-251.58" cy="-1536.76" r="41.71" gradientTransform="matrix(0.52, 0, 0, 0.66, 547.7, 1163.28)" gradientUnits="userSpaceOnUse"><stop offset="0" stop-color="#972a74"/><stop offset="0.04" stop-color="#8a266a"/><stop offset="0.19" stop-color="#601b4a"/><stop offset="0.35" stop-color="#3d112f"/><stop offset="0.51" stop-color="#230a1b"/><stop offset="0.67" stop-color="#0f040c"/><stop offset="0.83" stop-color="#040103"/><stop offset="1"/></radialGradient><linearGradient id="linear-gradient-2" x1="304.46" y1="84.41" x2="405.29" y2="259.05" gradientUnits="userSpaceOnUse"><stop offset="0.06" stop-color="#200041"/><stop offset="0.26" stop-color="#210243"/><stop offset="0.36" stop-color="#25084b"/><stop offset="0.43" stop-color="#2c1358"/><stop offset="0.47" stop-color="#311b61"/><stop offset="0.48" stop-color="#351f65"/><stop offset="0.5" stop-color="#422c73"/><stop offset="0.51" stop-color="#584188"/><stop offset="0.52" stop-color="#765fa7"/><stop offset="0.53" stop-color="#8770b8"/><stop offset="0.54" stop-color="#7e67ae"/><stop offset="0.56" stop-color="#5c468d"/><stop offset="0.59" stop-color="#442e75"/><stop offset="0.61" stop-color="#362066"/><stop offset="0.63" stop-color="#311b61"/><stop offset="0.67" stop-color="#2a1155"/><stop offset="0.75" stop-color="#230446"/><stop offset="0.81" stop-color="#200041"/><stop offset="1" stop-color="#200041"/></linearGradient><radialGradient id="radial-gradient-3" cx="461.15" cy="155.36" r="189.21" gradientUnits="userSpaceOnUse"><stop offset="0" stop-color="#711f56"/><stop offset="0.16" stop-color="#6c1e52"/><stop offset="0.36" stop-color="#5c1946"/><stop offset="0.58" stop-color="#431233"/><stop offset="0.82" stop-color="#200918"/><stop offset="1"/></radialGradient><radialGradient id="radial-gradient-4" cx="429.49" cy="141.84" r="111.47" gradientUnits="userSpaceOnUse"><stop offset="0" stop-color="#af8afc"/><stop offset="1" stop-color="#10054d"/></radialGradient><linearGradient id="linear-gradient-3" x1="438.48" y1="245.46" x2="130.32" y2="148.99" gradientUnits="userSpaceOnUse"><stop offset="0.19" stop-color="#3d065f"/><stop offset="0.93" stop-color="#3d065f"/></linearGradient><linearGradient id="linear-gradient-4" x1="442.5" y1="364.72" x2="286.01" y2="34.05" gradientUnits="userSpaceOnUse"><stop offset="0" stop-color="#311b61"/><stop offset="0.2" stop-color="#290f52"/><stop offset="0.49" stop-color="#200041"/><stop offset="1" stop-color="#0f001f"/></linearGradient><linearGradient id="linear-gradient-5" x1="327.8" y1="226.19" x2="426.08" y2="226.19" xlink:href="#linear-gradient-4"/><linearGradient id="New_Gradient_Swatch_copy_26" x1="453.08" y1="316.79" x2="179.08" y2="-9.21" gradientUnits="userSpaceOnUse"><stop offset="0.03" stop-color="#7c1dc9"/><stop offset="0.21" stop-color="#6e41d2"/><stop offset="0.62" stop-color="#4c9be8"/><stop offset="1" stop-color="#2af6ff"/></linearGradient><linearGradient id="linear-gradient-6" x1="-149.49" y1="10575.18" x2="-131.9" y2="10575.18" gradientTransform="matrix(-0.5, 1.44, -0.87, 0.5, 9523.54, -4890.48)" xlink:href="#linear-gradient-4"/><linearGradient id="linear-gradient-7" x1="440.3" y1="194.22" x2="428.18" y2="193.7" gradientUnits="userSpaceOnUse"><stop offset="0" stop-color="#3d065f"/><stop offset="1" stop-color="#5f27bd"/></linearGradient><radialGradient id="radial-gradient-5" cx="434.21" cy="189.05" r="7.12" xlink:href="#radial-gradient-3"/><linearGradient id="linear-gradient-8" x1="220.29" y1="216.65" x2="496.46" y2="154.74" gradientUnits="userSpaceOnUse"><stop offset="0.04" stop-color="#138bbd"/><stop offset="0.23" stop-color="#169ac7"/><stop offset="0.59" stop-color="#1fc3df"/><stop offset="1" stop-color="#2af6ff"/></linearGradient><radialGradient id="radial-gradient-6" cx="195.57" cy="-5741.02" r="89.01" gradientTransform="matrix(0.33, 0, 0, 0.42, 265.99, 2486.31)" xlink:href="#radial-gradient-2"/><radialGradient id="radial-gradient-7" cx="386.59" cy="314.16" r="187.58" gradientUnits="userSpaceOnUse"><stop offset="0.02" stop-color="#dc3daa"/><stop offset="0.26" stop-color="#7c1dc9"/><stop offset="0.49" stop-color="#6718b1"/><stop offset="0.81" stop-color="#4e1295"/><stop offset="0.99" stop-color="#45108a"/></radialGradient><linearGradient id="linear-gradient-9" x1="1640.56" y1="353.05" x2="1628.07" y2="336.3" gradientTransform="matrix(-1, 0, 0, 1, 1981.49, 0)" gradientUnits="userSpaceOnUse"><stop offset="0" stop-color="#010002"/><stop offset="0.03" stop-color="#030106"/><stop offset="0.19" stop-color="#0f0419"/><stop offset="0.36" stop-color="#170524"/><stop offset="0.54" stop-color="#190628"/><stop offset="0.7" stop-color="#0b0312"/><stop offset="0.86" stop-color="#030105"/><stop offset="1"/></linearGradient><linearGradient id="linear-gradient-10" x1="1623.85" y1="346.87" x2="1638.09" y2="346.87" gradientTransform="matrix(-1, 0, 0, 1, 1981.49, 0)" gradientUnits="userSpaceOnUse"><stop offset="0" stop-color="#100221"/><stop offset="1" stop-color="#10054d"/></linearGradient><radialGradient id="Radial_Gradient_1" cx="1632.43" cy="346.63" r="7.69" gradientTransform="matrix(-1, 0, 0, 1, 1981.49, 0)" gradientUnits="userSpaceOnUse"><stop offset="0" stop-color="#fff"/><stop offset="1"/></radialGradient><linearGradient id="linear-gradient-11" x1="1625.72" y1="346.99" x2="1636.69" y2="346.99" gradientTransform="matrix(-1, 0, 0, 1, 1981.49, 0)" gradientUnits="userSpaceOnUse"><stop offset="0" stop-color="#bcbec0"/><stop offset="1" stop-color="#e6e7e8"/></linearGradient><linearGradient id="linear-gradient-12" x1="1625.38" y1="347.12" x2="1636.34" y2="347.12" xlink:href="#linear-gradient-11"/><linearGradient id="linear-gradient-13" x1="1689.35" y1="381.18" x2="1676.86" y2="364.44" xlink:href="#linear-gradient-9"/><linearGradient id="linear-gradient-14" x1="1672.63" y1="375" x2="1686.87" y2="375" xlink:href="#linear-gradient-10"/><radialGradient id="Radial_Gradient_1-2" cx="1681.22" cy="374.76" r="7.69" xlink:href="#Radial_Gradient_1"/><linearGradient id="linear-gradient-15" x1="1674.51" y1="375.12" x2="1685.47" y2="375.12" xlink:href="#linear-gradient-11"/><linearGradient id="linear-gradient-16" x1="1674.17" y1="375.26" x2="1685.13" y2="375.26" xlink:href="#linear-gradient-11"/><radialGradient id="New_Gradient_Swatch_copy_20" cx="1750.72" cy="303.28" r="85.86" gradientTransform="matrix(-1, 0, 0, 1, 2058.05, 0)" gradientUnits="userSpaceOnUse"><stop offset="0" stop-color="#feeca8"/><stop offset="1" stop-color="#ffa98c"/></radialGradient><radialGradient id="New_Gradient_Swatch_copy_20-2" cx="1742.96" cy="303.26" r="84.77" gradientTransform="matrix(-1, 0, 0, 1, 2048.11, 0)" xlink:href="#New_Gradient_Swatch_copy_20"/><linearGradient id="linear-gradient-17" x1="1687.65" y1="307.92" x2="1721.08" y2="331.85" gradientTransform="matrix(-1, 0, 0, 1, 2048.11, 0)" gradientUnits="userSpaceOnUse"><stop offset="0.12" stop-color="#45108a"/><stop offset="0.35" stop-color="#44158c"/><stop offset="0.6" stop-color="#402292"/><stop offset="0.87" stop-color="#3b389d"/><stop offset="1" stop-color="#3746a3"/></linearGradient><linearGradient id="linear-gradient-18" x1="1682.29" y1="300.08" x2="1763.25" y2="354.9" xlink:href="#linear-gradient-17"/><linearGradient id="linear-gradient-19" x1="1680.01" y1="288.84" x2="1734.02" y2="325.41" gradientTransform="matrix(-1, 0, 0, 1, 2048.11, 0)" gradientUnits="userSpaceOnUse"><stop offset="0" stop-color="#25054d"/><stop offset="1" stop-color="#1b2b69"/></linearGradient><linearGradient id="linear-gradient-20" x1="1949.49" y1="483.19" x2="1953.1" y2="483.19" gradientTransform="matrix(-1, 0.05, 0.05, 1, 2181.82, -221.3)" xlink:href="#linear-gradient-11"/><linearGradient id="linear-gradient-21" x1="1949.49" y1="483.19" x2="1952.9" y2="483.19" gradientTransform="matrix(-1, 0.05, 0.05, 1, 2181.82, -221.3)" gradientUnits="userSpaceOnUse"><stop offset="0" stop-color="#9c9c9c"/><stop offset="0" stop-color="#9d9d9d"/><stop offset="0.31" stop-color="#c7c7c7"/><stop offset="0.59" stop-color="#e6e6e6"/><stop offset="0.83" stop-color="#f8f8f8"/><stop offset="1" stop-color="#fff"/></linearGradient><linearGradient id="linear-gradient-22" x1="1718.08" y1="336.65" x2="1746.8" y2="292.19" gradientTransform="matrix(-1, 0, 0, 1, 2048.11, 0)" gradientUnits="userSpaceOnUse"><stop offset="0" stop-color="#9c9c9c"/><stop offset="0.01" stop-color="#999"/><stop offset="0.26" stop-color="#636363"/><stop offset="0.49" stop-color="#383838"/><stop offset="0.7" stop-color="#191919"/><stop offset="0.88" stop-color="#070707"/><stop offset="1"/></linearGradient><linearGradient id="linear-gradient-23" x1="1728.63" y1="360.87" x2="1732.42" y2="354.64" gradientTransform="matrix(-1, 0, 0, 1, 2058.05, 0)" gradientUnits="userSpaceOnUse"><stop offset="0" stop-color="#9c9090"/><stop offset="0.08" stop-color="#a79d9d"/><stop offset="0.36" stop-color="#cdc7c7"/><stop offset="0.62" stop-color="#e8e6e6"/><stop offset="0.85" stop-color="#f9f8f8"/><stop offset="1" stop-color="#fff"/></linearGradient><linearGradient id="linear-gradient-24" x1="1694.81" y1="341.05" x2="1698.32" y2="335.28" xlink:href="#linear-gradient-23"/><linearGradient id="linear-gradient-25" x1="1949.87" y1="484.03" x2="1952.25" y2="484.03" gradientTransform="matrix(-1, 0.05, 0.05, 1, 2181.82, -221.3)" xlink:href="#linear-gradient-11"/><linearGradient id="linear-gradient-26" x1="-1011.36" y1="483.91" x2="-1009.72" y2="483.91" gradientTransform="translate(1241.91 -171.53) rotate(-3.02)" gradientUnits="userSpaceOnUse"><stop offset="0" stop-color="#bcbec0"/><stop offset="0.69" stop-color="#e9eaea"/><stop offset="1" stop-color="#fff"/></linearGradient><linearGradient id="linear-gradient-27" x1="1950.91" y1="482.08" x2="1952.64" y2="482.08" gradientTransform="matrix(-1, 0.05, 0.05, 1, 2181.82, -221.3)" xlink:href="#linear-gradient-11"/><linearGradient id="linear-gradient-28" x1="-1011.66" y1="481.94" x2="-1010.47" y2="481.94" xlink:href="#linear-gradient-26"/><linearGradient id="linear-gradient-29" x1="1770.27" y1="378.64" x2="1778.34" y2="378.64" gradientTransform="matrix(-1, 0, 0, 1, 2058.05, 0)" xlink:href="#linear-gradient-11"/><linearGradient id="linear-gradient-30" x1="1774.48" y1="380.15" x2="1774.29" y2="373.97" gradientTransform="matrix(-1, 0, 0, 1, 2058.05, 0)" xlink:href="#linear-gradient-21"/><linearGradient id="linear-gradient-31" x1="1771.58" y1="378.24" x2="1776.95" y2="378.24" gradientTransform="matrix(-1, 0, 0, 1, 2058.05, 0)" xlink:href="#linear-gradient-11"/><linearGradient id="linear-gradient-32" x1="-836.39" y1="378.63" x2="-833.99" y2="378.63" gradientTransform="translate(1193.91 473.26) rotate(30.31)" xlink:href="#linear-gradient-26"/><linearGradient id="linear-gradient-33" x1="1770.78" y1="378.74" x2="1773.99" y2="378.74" gradientTransform="matrix(-1, 0, 0, 1, 2058.05, 0)" xlink:href="#linear-gradient-11"/><linearGradient id="linear-gradient-34" x1="-833.33" y1="378.94" x2="-831.42" y2="378.94" gradientTransform="translate(1116.99)" xlink:href="#linear-gradient-26"/><radialGradient id="New_Gradient_Swatch_copy_15" cx="1771.59" cy="-2958.36" r="1.71" gradientTransform="matrix(-1, 0, 0, 1.67, 2058.05, 5308.14)" gradientUnits="userSpaceOnUse"><stop offset="0" stop-color="#ff63ce"/><stop offset="1" stop-color="#9f19ab"/></radialGradient><radialGradient id="New_Gradient_Swatch_copy_20-3" cx="1780.07" cy="374.22" r="18.28" gradientTransform="matrix(-1, 0, 0, 1, 2048.11, 0)" xlink:href="#New_Gradient_Swatch_copy_20"/><linearGradient id="linear-gradient-35" x1="1728.51" y1="345.33" x2="1731.69" y2="340.08" gradientTransform="matrix(-1, 0, 0, 1, 2058.05, 0)" xlink:href="#linear-gradient-22"/><linearGradient id="linear-gradient-36" x1="1761.22" y1="347.27" x2="1789.06" y2="347.27" gradientTransform="matrix(-1, 0, 0, 1, 2048.11, 0)" xlink:href="#linear-gradient-10"/><linearGradient id="linear-gradient-37" x1="1765.52" y1="370.52" x2="1779.17" y2="336.12" xlink:href="#linear-gradient-19"/><linearGradient id="linear-gradient-38" x1="1771.29" y1="328.26" x2="1775.74" y2="348.29" gradientTransform="matrix(-1, 0, 0, 1, 2048.11, 0)" gradientUnits="userSpaceOnUse"><stop offset="0.23" stop-color="#45108a"/><stop offset="0.43" stop-color="#43188e"/><stop offset="0.73" stop-color="#3e2d97"/><stop offset="1" stop-color="#3746a3"/></linearGradient><linearGradient id="linear-gradient-39" x1="6094.38" y1="9859.04" x2="6094.38" y2="9828.74" gradientTransform="translate(-5279.82 10544.91) rotate(-119.59)" gradientUnits="userSpaceOnUse"><stop offset="0" stop-color="#f15a29"/><stop offset="0.11" stop-color="#bd4620"/><stop offset="0.23" stop-color="#8b3418"/><stop offset="0.36" stop-color="#602410"/><stop offset="0.48" stop-color="#3e170a"/><stop offset="0.61" stop-color="#230d06"/><stop offset="0.73" stop-color="#0f0603"/><stop offset="0.86" stop-color="#040101"/><stop offset="1"/></linearGradient><linearGradient id="linear-gradient-40" x1="6093.74" y1="9859" x2="6093.74" y2="9827.83" gradientTransform="translate(-5279.82 10544.91) rotate(-119.59)" gradientUnits="userSpaceOnUse"><stop offset="0" stop-color="#fdd65b"/><stop offset="0.01" stop-color="#f7d159"/><stop offset="0.13" stop-color="#bea144"/><stop offset="0.25" stop-color="#8b7632"/><stop offset="0.37" stop-color="#605223"/><stop offset="0.49" stop-color="#3e3416"/><stop offset="0.62" stop-color="#231d0c"/><stop offset="0.74" stop-color="#0f0d05"/><stop offset="0.87" stop-color="#040301"/><stop offset="1"/></linearGradient><linearGradient id="linear-gradient-41" x1="6092.66" y1="9860.97" x2="6092.66" y2="9838.74" xlink:href="#linear-gradient-39"/><linearGradient id="linear-gradient-42" x1="6092.19" y1="9860.94" x2="6092.19" y2="9838.07" xlink:href="#linear-gradient-40"/><linearGradient id="linear-gradient-43" x1="6119.45" y1="9845.13" x2="6119.45" y2="9822.9" xlink:href="#linear-gradient-39"/><linearGradient id="linear-gradient-44" x1="6118.99" y1="9845.1" x2="6118.99" y2="9822.23" xlink:href="#linear-gradient-40"/><linearGradient id="linear-gradient-45" x1="6117.44" y1="9845.1" x2="6117.44" y2="9814.8" xlink:href="#linear-gradient-39"/><linearGradient id="linear-gradient-46" x1="6116.8" y1="9845.06" x2="6116.8" y2="9813.89" xlink:href="#linear-gradient-40"/><linearGradient id="linear-gradient-47" x1="-927.87" y1="279.79" x2="-937.47" y2="304.58" gradientTransform="translate(1267.4)" gradientUnits="userSpaceOnUse"><stop offset="0.74" stop-color="#45108a"/><stop offset="1" stop-color="#3746a3"/></linearGradient><linearGradient id="New_Gradient_Swatch_copy_8" x1="1741.66" y1="306.21" x2="1733.76" y2="324.69" gradientTransform="matrix(-1, 0, 0, 1, 2048.11, 0)" gradientUnits="userSpaceOnUse"><stop offset="0.04" stop-color="#ffa98c"/><stop offset="0.32" stop-color="#ffb892"/><stop offset="0.86" stop-color="#fee1a3"/><stop offset="1" stop-color="#feeca8"/></linearGradient><linearGradient id="New_Gradient_Swatch_copy_8-2" x1="1757.84" y1="320.67" x2="1778.75" y2="327.84" xlink:href="#New_Gradient_Swatch_copy_8"/><radialGradient id="New_Gradient_Swatch_copy_20-4" cx="1744.24" cy="310.4" r="61.06" gradientTransform="matrix(-1, 0, 0, 1, 2048.11, 0)" xlink:href="#New_Gradient_Swatch_copy_20"/><linearGradient id="linear-gradient-48" x1="1741.62" y1="324.19" x2="1747.04" y2="295.67" xlink:href="#linear-gradient-22"/><linearGradient id="linear-gradient-49" x1="1764.71" y1="333.52" x2="1782.21" y2="333.52" xlink:href="#linear-gradient-19"/><linearGradient id="linear-gradient-50" x1="1764.38" y1="333.55" x2="1782.56" y2="333.55" gradientTransform="matrix(-1, 0, 0, 1, 2048.11, 0)" xlink:href="#linear-gradient-10"/><linearGradient id="New_Gradient_Swatch_copy_7" x1="1772.08" y1="342.46" x2="1774.45" y2="329.73" gradientTransform="matrix(-1, 0, 0, 1, 2048.11, 0)" xlink:href="#linear-gradient-8"/><linearGradient id="New_Gradient_Swatch_copy_7-2" x1="241.65" y1="327.87" x2="244.03" y2="315.14" gradientTransform="translate(80.69)" xlink:href="#linear-gradient-8"/><linearGradient id="linear-gradient-51" x1="1697.31" y1="319.65" x2="1741.6" y2="359.7" xlink:href="#linear-gradient-17"/><linearGradient id="linear-gradient-52" x1="1699.1" y1="317.44" x2="1743.4" y2="357.49" xlink:href="#linear-gradient-17"/><linearGradient id="linear-gradient-53" x1="343.34" y1="302.17" x2="350.73" y2="318.11" gradientTransform="matrix(1, 0, 0, 1, 0, 0)" xlink:href="#linear-gradient-38"/><linearGradient id="linear-gradient-54" x1="292.42" y1="321.66" x2="299.8" y2="342.2" gradientTransform="matrix(1, 0, 0, 1, 0, 0)" xlink:href="#linear-gradient-38"/><linearGradient id="linear-gradient-55" x1="325.96" y1="313.92" x2="331.31" y2="326.86" gradientTransform="matrix(1, 0, 0, 1, 0, 0)" xlink:href="#linear-gradient-38"/><linearGradient id="linear-gradient-56" x1="314.2" y1="318.9" x2="319.02" y2="333.67" gradientTransform="matrix(1, 0, 0, 1, 0, 0)" xlink:href="#linear-gradient-38"/><linearGradient id="linear-gradient-57" x1="313.05" y1="107.66" x2="297.55" y2="117.16" gradientTransform="translate(98.23 -139.53) rotate(30.31)" gradientUnits="userSpaceOnUse"><stop offset="0" stop-color="#fff"/><stop offset="1" stop-color="#b086cc"/></linearGradient><linearGradient id="linear-gradient-58" x1="313.24" y1="148.77" x2="297.74" y2="159.06" gradientTransform="translate(119.2 -133.85) rotate(30.31)" xlink:href="#linear-gradient-57"/><linearGradient id="linear-gradient-59" x1="313.41" y1="189.84" x2="297.91" y2="200.96" gradientTransform="translate(140.17 -128.17) rotate(30.31)" xlink:href="#linear-gradient-57"/><linearGradient id="linear-gradient-60" x1="313.58" y1="230.88" x2="298.08" y2="242.88" gradientTransform="translate(161.14 -122.49) rotate(30.31)" xlink:href="#linear-gradient-57"/><linearGradient id="New_Gradient_Swatch_copy_26-2" x1="326.9" y1="156.04" x2="259.64" y2="72.32" gradientTransform="translate(99.18 -133.04) rotate(30.31)" xlink:href="#New_Gradient_Swatch_copy_26"/><linearGradient id="New_Gradient_Swatch_copy_26-3" x1="324.33" y1="194.38" x2="265.72" y2="121.44" gradientTransform="translate(120.15 -127.36) rotate(30.31)" xlink:href="#New_Gradient_Swatch_copy_26"/><linearGradient id="New_Gradient_Swatch_copy_26-4" x1="321.75" y1="232.73" x2="271.8" y2="170.56" gradientTransform="translate(141.12 -121.68) rotate(30.31)" xlink:href="#New_Gradient_Swatch_copy_26"/><linearGradient id="New_Gradient_Swatch_copy_26-5" x1="319.17" y1="271.07" x2="277.88" y2="219.67" gradientTransform="translate(162.09 -116) rotate(30.31)" xlink:href="#New_Gradient_Swatch_copy_26"/></defs><g class="cls-1"><g id="Layer_2" data-name="Layer 2"><rect class="cls-2" width="660" height="450"/><polygon class="cls-3" points="301.05 333.59 134.09 414.32 261.33 414.32 371.57 345.09 371.57 330.46 379.16 323.56 390.32 313.46 390.32 301.79 353.34 329.87 301.05 333.59"/><ellipse class="cls-4" cx="374.09" cy="230.82" rx="151.82" ry="194.67"/><g class="cls-5"><path class="cls-6" d="M434.28,384.15a16.77,16.77,0,0,1-8.34-2l-50.62-28.81-50.62-28.8a8.83,8.83,0,0,1-4.78-7.62c0-3.39,2.09-6.54,5.75-8.65l33.13-18.64a20.54,20.54,0,0,1,10.13-2.57,16.75,16.75,0,0,1,8.33,2l50.62,28.81,50.62,28.81a8.82,8.82,0,0,1,4.79,7.62c0,3.38-2.1,6.53-5.76,8.65L444.4,381.58A20.53,20.53,0,0,1,434.28,384.15Z"/><path class="cls-7" d="M326.57,309l9-5c.36-.21,17.22-9.41,17.54-9.23l5.79-2.83c2.61-1.51,6.45-2,9.77-2a17.2,17.2,0,0,1,8,2.09l40.53,23.09,8.65,4.93,49.17,28a10.43,10.43,0,0,1,3.82,3.72,7.78,7.78,0,0,1,1,3.54c.1,3.25-1.9,6.34-5.5,8.41l-9,5c-.36.22-17.22,9.41-17.54,9.23l-5.79,2.84c-2.61,1.51-6.45,2-9.78,2a17.2,17.2,0,0,1-8-2.1l-40.53-23.09-8.65-4.92-49.17-28a10.51,10.51,0,0,1-3.82-3.72,7.82,7.82,0,0,1-1-3.55C321,314.13,323,311.05,326.57,309Z"/><path class="cls-8" d="M327.47,309.68l8.74-4.83c.73-.42,16.51-8.72,17.15-8.36l5.62-2.32c2.35-1.35,6.44-1.44,9.42-1.44a17.81,17.81,0,0,1,7.76,2.18l39.34,22.43,8.39,4.79,47.73,27.21a11.5,11.5,0,0,1,3.77,3.54,7.67,7.67,0,0,1,1.1,3.38c.19,3.12-1.71,6.13-5.24,8.17l-8.74,4.83c-.73.42-16.52,8.72-17.15,8.36l-5.62,2.32c-2.35,1.36-6.44,1.44-9.43,1.44a17.8,17.8,0,0,1-7.75-2.18l-39.34-22.43L374.83,352l-47.74-27.21a11.46,11.46,0,0,1-3.76-3.54,7.67,7.67,0,0,1-1.1-3.38C322,314.73,323.93,311.72,327.47,309.68Z"/><path class="cls-9" d="M328.37,310.4l8.5-4.65c1.09-.64,15.8-8.05,16.75-7.5l5.45-1.8c2.09-1.2,6.42-.88,9.07-.88a18.64,18.64,0,0,1,7.47,2.27l38.15,21.78,8.14,4.64,46.28,26.42A12.5,12.5,0,0,1,471.9,354a7.43,7.43,0,0,1,1.19,3.21c.29,3-1.51,5.92-5,7.92l-8.5,4.66c-1.1.63-15.8,8-16.75,7.49l-5.45,1.8c-2.09,1.21-6.42.88-9.08.88a18.69,18.69,0,0,1-7.47-2.27L382.71,356l-8.13-4.64-46.29-26.42a12.5,12.5,0,0,1-3.72-3.36,7.71,7.71,0,0,1-1.19-3.2C323.1,315.34,324.89,312.4,328.37,310.4Z"/><path class="cls-10" d="M329.26,311.11l8.26-4.47c1.47-.85,15.09-7.36,16.36-6.63l5.28-1.28c1.83-1.06,6.4-.32,8.72-.32,2,0,5.73,1.53,7.18,2.36l37,21.12,7.88,4.51L464.75,352a14.06,14.06,0,0,1,3.66,3.18,7.61,7.61,0,0,1,1.29,3c.37,2.86-1.32,5.72-4.73,7.69l-8.26,4.47c-1.46.85-15.09,7.36-16.35,6.63l-5.28,1.28c-1.83,1.06-6.4.32-8.73.32-2,0-5.73-1.53-7.18-2.36l-37-21.12-7.88-4.51L329.49,325a14.11,14.11,0,0,1-3.67-3.18,7.58,7.58,0,0,1-1.28-3C324.16,315.94,325.85,313.08,329.26,311.11Z"/><path class="cls-11" d="M330.16,311.82l8-4.29c1.83-1,14.38-6.67,16-5.76l5.1-.76c1.57-.91,6.39.24,8.38.24,1.74,0,5.65,1.74,6.89,2.45l35.77,20.47,7.63,4.36,43.4,24.83a16.25,16.25,0,0,1,3.61,3,7.6,7.6,0,0,1,1.38,2.87c.47,2.72-1.12,5.51-4.47,7.45l-8,4.29c-1.83,1.05-14.38,6.67-16,5.76l-5.1.76c-1.57.91-6.39-.25-8.38-.25-1.73,0-5.65-1.73-6.89-2.44l-35.77-20.47L374.08,350l-43.39-24.83a16.83,16.83,0,0,1-3.62-3,7.76,7.76,0,0,1-1.38-2.87C325.22,316.55,326.81,313.75,330.16,311.82Z"/><path class="cls-12" d="M331.06,312.53l7.77-4.11c2.2-1.26,13.67-6,15.57-4.89l4.93-.24c1.31-.76,6.37.81,8,.81,1.45,0,5.57,1.94,6.6,2.53l34.58,19.81,7.38,4.22,41.95,24a19.49,19.49,0,0,1,3.56,2.82,7.62,7.62,0,0,1,1.47,2.69c.57,2.6-.92,5.32-4.2,7.21l-7.78,4.11c-2.19,1.27-13.67,6-15.57,4.9l-4.93.24c-1.31.76-6.37-.81-8-.81-1.44,0-5.57-1.94-6.6-2.54l-34.58-19.8-7.37-4.23-41.95-24a19.19,19.19,0,0,1-3.57-2.81,7.66,7.66,0,0,1-1.47-2.7C326.28,317.15,327.77,314.43,331.06,312.53Z"/><path class="cls-13" d="M332,313.25l7.54-3.93c2.56-1.48,12.95-5.31,15.17-4l4.76.27c1.05-.6,6.35,1.38,7.68,1.38,1.16,0,5.49,2.15,6.32,2.62l33.38,19.15,7.12,4.09L454.43,356a24.57,24.57,0,0,1,3.51,2.64,8,8,0,0,1,1.57,2.52c.66,2.46-.73,5.11-3.95,7L448,372.09c-2.57,1.48-13,5.31-15.18,4l-4.76-.28c-1,.61-6.35-1.37-7.68-1.37-1.16,0-5.49-2.15-6.31-2.63l-33.39-19.15-7.12-4.08-40.5-23.23a24.12,24.12,0,0,1-3.52-2.64,7.8,7.8,0,0,1-1.56-2.52C327.34,317.75,328.73,315.11,332,313.25Z"/><path class="cls-14" d="M332.85,314l7.29-3.75c2.93-1.69,12.25-4.63,14.78-3.16l4.59.79c.78-.45,6.34,1.94,7.33,1.94s5.41,2.35,6,2.71L405.06,331l6.87,3.94L451,357.37a22.49,22.49,0,0,1,3.46,2.45,5.21,5.21,0,0,1,1.66,2.36c.77,2.33-.53,4.9-3.69,6.73l-7.29,3.74c-2.93,1.69-12.25,4.63-14.78,3.17l-4.59-.8c-.78.46-6.34-1.93-7.33-1.93s-5.4-2.36-6-2.72l-32.19-18.49-6.87-3.94L334.28,325.5a22.53,22.53,0,0,1-3.46-2.46,5.19,5.19,0,0,1-1.66-2.35C328.39,318.36,329.69,315.78,332.85,314Z"/><path class="cls-15" d="M333.75,314.67l7.05-3.57c3.29-1.9,11.53-3.94,14.38-2.29l4.42,1.31c.52-.3,6.32,2.5,7,2.5s5.32,2.56,5.74,2.8l31,17.84,6.61,3.8,37.62,21.65A31.55,31.55,0,0,1,451,361a5,5,0,0,1,1.75,2.18c.87,2.2-.33,4.7-3.43,6.49l-7,3.57c-3.29,1.9-11.53,3.94-14.38,2.3l-4.42-1.32c-.52.31-6.32-2.5-7-2.5s-5.32-2.56-5.74-2.8l-31-17.84-6.61-3.8-37.62-21.64a30.59,30.59,0,0,1-3.41-2.27,5,5,0,0,1-1.75-2.19C329.45,319,330.65,316.46,333.75,314.67Z"/><path class="cls-16" d="M334.65,315.39l6.8-3.39c3.66-2.12,10.83-3.26,14-1.43l4.25,1.83c.26-.15,6.3,3.06,6.63,3.06s5.24,2.77,5.45,2.89l29.81,17.18,6.36,3.67L444.11,360c.16.09,3.29,1.95,3.36,2.09a5,5,0,0,1,1.84,2c1,2.06-.13,4.5-3.17,6.25l-6.8,3.39c-3.66,2.11-10.83,3.26-14,1.43l-4.24-1.83c-.26.15-6.3-3.07-6.63-3.07s-5.24-2.77-5.45-2.89L379.2,350.25l-6.35-3.66-36.17-20.85c-.16-.09-3.29-1.95-3.36-2.09a5.06,5.06,0,0,1-1.85-2C330.5,319.57,331.61,317.14,334.65,315.39Z"/><path d="M422.84,374.92,378.7,349.43,334.57,324c-3.49-2-3.05-5.53,1-7.85l6.57-3.21c4-2.32,10.11-2.58,13.6-.56l44.13,25.48L444,363.29c3.49,2,3,5.53-1,7.85l-6.56,3.21C432.42,376.68,426.33,376.93,422.84,374.92Z"/></g><ellipse class="cls-17" cx="417.3" cy="143.17" rx="21.63" ry="27.69" transform="translate(-23.1 169.36) rotate(-22.34)"/><path class="cls-18" d="M422.9,368.79l-77.19-44.56c-8.7-5-15.76-18.51-15.76-30.12V88.54c0-5.9-4.86-7.21-1.92-9.33.12-.08,6.89-3.16,7-3.21,3.17-1.21,6.55-1.75,10.66.62l77.19,44.57c8.71,5,15.77,18.51,15.77,30.12V356.88c0,6.16-2,10.56-5.17,12.57-.19.12-8.36,4-8.57,4.08C422.12,374.47,426.71,371,422.9,368.79Z"/><path class="cls-19" d="M422.19,121.43,345,76.86c-4.11-2.37,72.92,46,72.92,46,8.71,5,15.77,18.51,15.77,30.12,0,0,4.27,210.31,4.27,204.14V151.55C438,139.94,430.9,126.45,422.19,121.43Z"/><path class="cls-20" d="M416.91,371.54,339.72,327c-8.71-5-15.77-18.51-15.77-30.12V91.28c0-11.6,7.06-16.94,15.77-11.91l77.19,44.56c8.7,5,15.76,18.51,15.76,30.12V359.62C432.67,371.23,425.61,376.56,416.91,371.54Z"/><path class="cls-21" d="M415.53,372.28l-77.19-44.57c-8.7-5-15.76-18.51-15.76-30.12V92c0-11.61,7.06-17,15.76-11.92l77.19,44.56c8.71,5,15.77,18.52,15.77,30.13V360.36C431.3,372,424.24,377.3,415.53,372.28Z"/><path class="cls-22" d="M324.73,299V93.14c0-10.18,6.19-14.85,13.82-10.45L415.33,127c7.63,4.41,13.82,16.23,13.82,26.41V359.24c0,10.18-6.19,14.86-13.82,10.45l-76.78-44.33C330.92,321,324.73,309.14,324.73,299Z"/><path class="cls-23" d="M327.8,300.21V95.44c0-8.52,5.18-12.44,11.57-8.75l75.14,43.38c6.39,3.69,11.57,13.59,11.57,22.11V357c0,8.52-5.18,12.43-11.57,8.75l-75.14-43.39C333,318.62,327.8,308.73,327.8,300.21Z"/><path class="cls-24" d="M340.24,89c-6-3.47-10.91-.69-10.91,6.22V302.25c0,6.91,4.89,15.33,10.91,18.8l73.4,42.38c6,3.48,10.9.69,10.9-6.21V150.14c0-6.91-4.88-15.33-10.9-18.81Z"/><path class="cls-25" d="M433.37,202.36V188.48a5.77,5.77,0,0,1,2.41-4.6h0c1.33-.77,2.41.05,2.41,1.82v13.88a5.77,5.77,0,0,1-2.41,4.6h0C434.45,205,433.37,204.13,433.37,202.36Z"/><path class="cls-26" d="M434.82,204c-.68,0-.93-.86-.93-1.59V188.48a5.26,5.26,0,0,1,2.15-4.15,1.49,1.49,0,0,1,.7-.22c.68,0,.93.86.93,1.59v13.88a5.31,5.31,0,0,1-2.15,4.15A1.49,1.49,0,0,1,434.82,204Z"/><path class="cls-27" d="M434.6,202.71V188.84a5.33,5.33,0,0,1,2.15-4.16,1.49,1.49,0,0,1,.62-.2.74.74,0,0,0-.63-.37,1.49,1.49,0,0,0-.7.22,5.26,5.26,0,0,0-2.15,4.15v13.88c0,.73.25,1.59.93,1.59h.08A2.34,2.34,0,0,1,434.6,202.71Z"/><path class="cls-28" d="M413.64,131.33,340.24,89c-6-3.47-10.91-.69-10.91,6.22V302.25c0,6.91,4.89,15.33,10.91,18.8l73.4,42.38c6,3.48,10.9.69,10.9-6.21V150.14C424.54,143.23,419.66,134.81,413.64,131.33Zm9.95,225.89a8,8,0,0,1-1.46,5.09,4.45,4.45,0,0,1-3.6,1.67h0a9.05,9.05,0,0,1-4.42-1.37l-73.4-42.38c-5.75-3.32-10.43-11.38-10.43-18V95.17c0-4.17,1.94-6.76,5.06-6.76a9.05,9.05,0,0,1,4.42,1.37l73.4,42.37c5.75,3.32,10.43,11.39,10.43,18Z"/><g class="cls-29"><polygon class="cls-30" points="366.91 105.59 383.57 114.59 363.24 150.26 363.24 201.93 347.57 222.26 342.24 253.26 329.91 270.26 329.91 239.59 337.91 212.93 349.91 198.26 355.24 177.26 352.57 149.59 366.91 105.59"/><path class="cls-31" d="M412.35,172.59l12.19,7V177l-12.19-7V130.59l-2.29-1.32v39.35l-7.58-4.37-7.1-18.43-66.05-38.14v2.65l14.44,8.33V159l-14.44-8.34v2.65l14.44,8.34v23.58l-14.44-8.36v2.64l16.73,9.69V163l49.46,28.55v41.62l-6.15-3.55L368.08,236l-38.75-22.37v2.64l26.09,15.07v39.41l-26.09,11.61v2.51l27-12,23.87,40.77L357.63,331.1l2.14,1.23L398,302.74l12.09,6.92V360h2.29V311l12,6.88.19-.33v-2.21l-12.19-7V274.55l12.19,7v-2.65l-12.19-7V245.49l12.19,7v-2.65l-12.19-7V201.23l12.19,7v-2.65l-12.19-7Zm-54.64,60.07,9.66,5.57.43.25,21.28-6.42,6.44,3.71V262.2l-9.1-5.25-28.71,12.78ZM410.06,307l-12.27-7L382,312.21l-23.59-40.29,27.86-12.4,9.24,5.32v.07h.12l14.42,8.32Zm0-36.43-12.25-7.07V237.09l12.25,7.08Zm0-29.07-12.25-7.07V192.83l12.25,7.08Zm0-44.26-64-36.95V120l47.48,27.41,7.1,18.43,9.42,5.43Z"/></g><ellipse class="cls-32" cx="331.57" cy="88.26" rx="29.78" ry="37.18" transform="translate(-4.05 159.6) rotate(-26.91)"/><path class="cls-33" d="M354.07,331.82l-52.5,3.74-163,78.76h119l109.89-69a4.47,4.47,0,0,0,2.11-3.81V329.57l8.25-7.5,10.5-9.5v-6.75Z"/><polygon class="cls-34" points="412.86 202.52 412.91 197.26 412.76 197.18 412.76 151.32 408.91 147.97 408.91 195.05 371.76 174.56 371.76 235.47 384.06 258.45 384.06 309.68 388.64 308.62 388.64 257.3 376.34 234.32 376.34 182.28 412.86 202.52"/><path class="cls-35" d="M391.7,312.38c0,3.7-2.61,5.19-5.84,3.33A12.86,12.86,0,0,1,380,305.64c0-3.69,2.61-5.19,5.83-3.32A12.85,12.85,0,0,1,391.7,312.38Z"/><path class="cls-36" d="M391.7,262.8c0,3.7-2.61,5.19-5.84,3.33A12.86,12.86,0,0,1,380,256.06c0-3.7,2.61-5.19,5.83-3.33A12.85,12.85,0,0,1,391.7,262.8Z"/><path class="cls-36" d="M390.06,271.93a9,9,0,0,1-4.45-1.35C380.33,267.53,376,260.1,376,254c0-4.32,2.22-7.11,5.65-7.11a8.9,8.9,0,0,1,4.44,1.35c5.29,3.05,9.59,10.47,9.59,16.54C395.7,269.14,393.49,271.93,390.06,271.93Zm-8.39-24c-2.86,0-4.65,2.34-4.65,6.11,0,5.75,4.08,12.78,9.09,15.67a8.07,8.07,0,0,0,3.95,1.22c2.86,0,4.64-2.34,4.64-6.11,0-5.75-4.07-12.78-9.09-15.68A8.12,8.12,0,0,0,381.67,247.93Z"/><ellipse class="cls-35" cx="374.99" cy="235.09" rx="4.75" ry="8.23" transform="translate(-67.39 221.39) rotate(-30.31)"/><path class="cls-35" d="M379.66,183.05c0,3.7-2.61,5.19-5.84,3.33A12.88,12.88,0,0,1,368,176.31c0-3.7,2.62-5.19,5.84-3.33A12.85,12.85,0,0,1,379.66,183.05Z"/><path class="cls-35" d="M415.91,200.8c0,3.7-2.61,5.19-5.84,3.33a12.88,12.88,0,0,1-5.84-10.07c0-3.7,2.62-5.19,5.84-3.33A12.85,12.85,0,0,1,415.91,200.8Z"/><path class="cls-35" d="M415.91,154.05c0,3.7-2.61,5.19-5.84,3.33a12.88,12.88,0,0,1-5.84-10.07c0-3.7,2.62-5.19,5.84-3.33A12.85,12.85,0,0,1,415.91,154.05Z"/><g class="cls-37"><path class="cls-38" d="M316.79,349.24a1,1,0,0,1-.51-1.86l4.33-2.51a1,1,0,1,1,1,1.73l-4.32,2.51A1,1,0,0,1,316.79,349.24Z"/><path class="cls-38" d="M218.64,406.1a1,1,0,0,1-.5-1.86l8.18-4.74a1,1,0,0,1,1,1.73L219.14,406A1,1,0,0,1,218.64,406.1ZM235,396.63a1,1,0,0,1-.51-1.87l8.18-4.74a1,1,0,0,1,1.37.37,1,1,0,0,1-.37,1.36l-8.17,4.74A1,1,0,0,1,235,396.63Zm16.35-9.48a1,1,0,0,1-.5-1.86l8.18-4.74a1,1,0,0,1,1.37.36,1,1,0,0,1-.37,1.37L251.85,387A1,1,0,0,1,251.35,387.15Zm16.36-9.48a1,1,0,0,1-.86-.49,1,1,0,0,1,.36-1.37l8.18-4.74a1,1,0,0,1,1,1.73l-8.18,4.74A1,1,0,0,1,267.71,377.67Zm16.36-9.47a1,1,0,0,1-.5-1.87l8.18-4.74a1,1,0,0,1,1.36.37,1,1,0,0,1-.36,1.36l-8.18,4.74A1,1,0,0,1,284.07,368.2Zm16.36-9.48a1,1,0,0,1-.87-.5,1,1,0,0,1,.37-1.36l8.17-4.74a1,1,0,1,1,1,1.73l-8.18,4.74A1,1,0,0,1,300.43,358.72Z"/><path class="cls-38" d="M206.13,413.35a1,1,0,0,1-.5-1.87L210,409a1,1,0,0,1,1.36.36,1,1,0,0,1-.36,1.37l-4.33,2.5A.9.9,0,0,1,206.13,413.35Z"/></g><path class="cls-39" d="M367.07,345.6,292.2,388.83c-2.9,1.41-3.52,1.41-7.29-.89l-27.75-16.67a2.28,2.28,0,0,1,0-3.94l75.77-44.24a2.29,2.29,0,0,1,2.29,0l31.86,18.57A2.27,2.27,0,0,1,367.07,345.6Z"/><polygon class="cls-40" points="309.27 370.92 297.67 364.18 309.81 361.97 309.27 370.92"/><polygon class="cls-40" points="357.95 343.42 346.35 336.68 358.49 334.47 357.95 343.42"/><path class="cls-41" d="M339.28,348.64c0,2.2.76,3.76,2,4.52l3.94,2.28c1.29.72.47-.91,2.42-2a15.7,15.7,0,0,0,7.12-12.28c0-2.23,2.06-2.25.8-3l-4.19-2.32c-1.28-.7-3-.57-5,.55A15.7,15.7,0,0,0,339.28,348.64Z"/><path class="cls-42" d="M343.4,351c0,4.51,3.19,6.33,7.12,4.06a15.67,15.67,0,0,0,7.12-12.28c0-4.51-3.18-6.33-7.12-4.06A15.7,15.7,0,0,0,343.4,351Z"/><path class="cls-43" d="M350.18,338.53c1.89-1.09,3.6-1.24,4.87-.6a5.61,5.61,0,0,0-4.25.84,15.7,15.7,0,0,0-7.12,12.28c0,2.35.86,4,2.25,4.66-1.74-.49-2.87-2.22-2.87-4.9A15.7,15.7,0,0,1,350.18,338.53Z"/><path class="cls-44" d="M344.8,350.15c0,3.48,2.46,4.88,5.49,3.13a12.07,12.07,0,0,0,5.48-9.46c0-3.47-2.45-4.87-5.48-3.13A12.1,12.1,0,0,0,344.8,350.15Zm3.62-2.19v.2a1,1,0,0,1-.23.61l-1.7,2.11c-.25.31-.58.35-.66.07a5.14,5.14,0,0,1-.16-1.3,7.61,7.61,0,0,1,.16-1.48c.08-.38.41-.71.66-.69l1.7.14C348.34,347.63,348.43,347.76,348.42,348ZM347,345.15a10.52,10.52,0,0,1,2.09-2.6c.29-.26.57-.17.57.17V345a1,1,0,0,1-.24.61l-.15.19a.62.62,0,0,1-.47.28l-1.7-.15C346.85,345.88,346.8,345.51,347,345.15Zm4.46-4a2.7,2.7,0,0,1,2.1.18c.2.12.15.55-.1.87l-1.7,2.11a.56.56,0,0,1-.47.26h-.15c-.16,0-.25-.13-.25-.33V342A1,1,0,0,1,351.47,341.18Zm3.27,1.84a4.71,4.71,0,0,1,.17,1.3,7.1,7.1,0,0,1-.17,1.49c-.07.37-.4.71-.66.69l-1.7-.15c-.14,0-.24-.14-.23-.34v-.2a1,1,0,0,1,.23-.61l1.7-2.11C354.34,342.78,354.67,342.74,354.74,343Zm-1.17,5.8a10.16,10.16,0,0,1-2.1,2.6c-.29.26-.57.17-.57-.17V349a1,1,0,0,1,.25-.61l.15-.19a.57.57,0,0,1,.47-.27l1.7.14C353.72,348.09,353.77,348.47,353.57,348.82Zm-4.47,4a2.68,2.68,0,0,1-2.09-.18c-.21-.12-.16-.55.1-.87l1.7-2.11a.59.59,0,0,1,.47-.26h.15c.15,0,.24.14.24.33V352A1,1,0,0,1,349.1,352.79Z"/><path class="cls-45" d="M345.15,350.29c0,3.47,2.45,4.87,5.48,3.12a12.05,12.05,0,0,0,5.48-9.45c0-3.48-2.45-4.88-5.48-3.13A12.07,12.07,0,0,0,345.15,350.29Zm3.62-2.19a.5.5,0,0,0,0,.2,1.1,1.1,0,0,1-.23.61l-1.71,2.1c-.25.32-.58.36-.66.08a5.14,5.14,0,0,1-.16-1.3,7.79,7.79,0,0,1,.16-1.49c.08-.37.41-.71.66-.69l1.71.15C348.68,347.77,348.77,347.9,348.77,348.1Zm-1.42-2.82a10.51,10.51,0,0,1,2.1-2.6c.28-.25.57-.16.57.18v2.24a1,1,0,0,1-.25.62l-.15.18a.56.56,0,0,1-.47.28l-1.7-.14C347.2,346,347.14,345.64,347.35,345.28Zm4.46-4a2.7,2.7,0,0,1,2.1.18c.21.12.15.55-.1.87l-1.7,2.11a.59.59,0,0,1-.47.26h-.15c-.15,0-.25-.14-.25-.33v-2.25A1,1,0,0,1,351.81,341.32Zm3.28,1.84a5.08,5.08,0,0,1,.16,1.3,7.61,7.61,0,0,1-.16,1.48c-.08.37-.41.71-.67.69l-1.7-.14a.29.29,0,0,1-.23-.34s0-.07,0-.1,0-.07,0-.11a1,1,0,0,1,.23-.6l1.7-2.11C354.68,342.92,355,342.87,355.09,343.16Zm-1.18,5.8a10.33,10.33,0,0,1-2.1,2.6c-.28.25-.57.17-.57-.17v-2.25a1,1,0,0,1,.25-.61l.15-.19a.59.59,0,0,1,.47-.28l1.7.15C354.06,348.23,354.12,348.6,353.91,349Zm-4.46,4a2.7,2.7,0,0,1-2.1-.18c-.21-.12-.15-.56.1-.87l1.7-2.11a.56.56,0,0,1,.47-.26h.15c.15,0,.25.13.25.33v2.25A1,1,0,0,1,349.45,352.93Z"/><path class="cls-46" d="M290.49,376.77c0,2.21.76,3.77,2,4.52l3.94,2.29c1.29.72.47-.92,2.42-2A15.7,15.7,0,0,0,306,369.26c0-2.24,2.06-2.25.8-3l-4.19-2.32c-1.28-.69-3-.56-5,.55A15.7,15.7,0,0,0,290.49,376.77Z"/><path class="cls-47" d="M294.61,379.11c0,4.52,3.19,6.33,7.12,4.06a15.67,15.67,0,0,0,7.12-12.28c0-4.51-3.18-6.33-7.12-4.06A15.7,15.7,0,0,0,294.61,379.11Z"/><path class="cls-48" d="M301.39,366.66c1.89-1.09,3.6-1.23,4.87-.6a5.61,5.61,0,0,0-4.25.84,15.7,15.7,0,0,0-7.12,12.28c0,2.35.86,4,2.25,4.66-1.74-.49-2.87-2.22-2.87-4.9A15.7,15.7,0,0,1,301.39,366.66Z"/><path class="cls-49" d="M296,378.29c0,3.47,2.45,4.87,5.48,3.12A12.07,12.07,0,0,0,307,372c0-3.47-2.45-4.87-5.48-3.12A12.07,12.07,0,0,0,296,378.29Zm3.62-2.2a.41.41,0,0,0,0,.11.34.34,0,0,0,0,.1,1,1,0,0,1-.24.6L297.7,379c-.25.32-.58.36-.66.08a5.2,5.2,0,0,1-.16-1.3,7.63,7.63,0,0,1,.16-1.49c.08-.37.41-.71.66-.69l1.7.15C299.55,375.77,299.64,375.9,299.64,376.09Zm-1.42-2.81a10.52,10.52,0,0,1,2.09-2.6c.29-.25.57-.17.57.17v2.25a1,1,0,0,1-.24.61l-.15.19a.59.59,0,0,1-.47.28l-1.7-.14C298.06,374,298,373.64,298.22,373.28Zm4.46-4a2.7,2.7,0,0,1,2.1.19c.2.12.15.55-.1.86l-1.7,2.11a.6.6,0,0,1-.47.27l-.15,0c-.16,0-.25-.13-.25-.33v-2.24A1,1,0,0,1,302.68,369.31Zm3.28,1.84a5.2,5.2,0,0,1,.16,1.3,7.63,7.63,0,0,1-.16,1.49c-.08.37-.41.71-.67.69l-1.7-.15c-.14,0-.24-.14-.23-.33v-.21a1,1,0,0,1,.23-.6l1.7-2.11C305.55,370.91,305.88,370.87,306,371.15ZM304.78,377a10.33,10.33,0,0,1-2.1,2.6c-.29.25-.57.17-.57-.17v-2.25a.94.94,0,0,1,.25-.61l.15-.19a.59.59,0,0,1,.47-.28l1.7.14C304.93,376.23,305,376.6,304.78,377Zm-4.47,4a2.68,2.68,0,0,1-2.09-.19c-.21-.12-.16-.55.1-.86l1.7-2.11a.6.6,0,0,1,.47-.27l.15,0c.15,0,.24.13.24.33v2.25A1,1,0,0,1,300.31,380.93Z"/><path class="cls-50" d="M296.36,378.42c0,3.48,2.45,4.88,5.48,3.13a12.07,12.07,0,0,0,5.48-9.46c0-3.47-2.45-4.87-5.48-3.13A12.09,12.09,0,0,0,296.36,378.42Zm3.62-2.19s0,.07,0,.1,0,.07,0,.1a1.08,1.08,0,0,1-.23.61l-1.7,2.11c-.26.31-.59.35-.67.07a5.08,5.08,0,0,1-.16-1.3,7.61,7.61,0,0,1,.16-1.48c.08-.37.41-.71.67-.69l1.7.14C299.89,375.9,300,376,300,376.23Zm-1.42-2.81a10.33,10.33,0,0,1,2.1-2.6c.28-.26.57-.17.57.17v2.25a1,1,0,0,1-.25.61l-.15.19a.59.59,0,0,1-.47.28l-1.7-.15C298.41,374.15,298.35,373.78,298.56,373.42Zm4.46-4a2.7,2.7,0,0,1,2.1.18c.21.12.15.55-.1.87l-1.7,2.11a.56.56,0,0,1-.47.26h-.15c-.15,0-.25-.13-.25-.33v-2.25A1,1,0,0,1,303,369.45Zm3.28,1.84a5.14,5.14,0,0,1,.16,1.3,7.79,7.79,0,0,1-.16,1.49c-.08.37-.41.71-.66.69l-1.71-.15c-.14,0-.23-.14-.23-.34a.51.51,0,0,0,0-.2,1.1,1.1,0,0,1,.23-.61l1.71-2.1C305.89,371.05,306.22,371,306.3,371.29Zm-1.18,5.81a10.51,10.51,0,0,1-2.1,2.6c-.28.25-.57.16-.57-.18v-2.25a1,1,0,0,1,.25-.61l.15-.19a.57.57,0,0,1,.47-.27l1.7.14C305.27,376.36,305.33,376.74,305.12,377.1Zm-4.46,4a2.7,2.7,0,0,1-2.1-.18c-.21-.12-.15-.55.1-.87l1.7-2.11a.59.59,0,0,1,.47-.26H301c.15,0,.25.14.25.33v2.25A1,1,0,0,1,300.66,381.06Z"/><path class="cls-51" d="M262,324.67a4.58,4.58,0,0,1,1.54-1.46l70-40.36a4.56,4.56,0,0,1,4.44-.05l20.27,11.1a4.54,4.54,0,0,1,2,2.32L364,311a4.67,4.67,0,0,1,.31,1.57v24.47a4.54,4.54,0,0,1-2.3,4l-4.11,2.35a13,13,0,0,0,.18-2c0-5-3.55-7-7.92-4.51s-7.91,8.63-7.91,13.65a8.71,8.71,0,0,0,.15,1.67l-33.09,18.7c0-.34.05-.68.05-1,0-5-3.55-7-7.92-4.51S293.49,374,293.49,379c0,.28,0,.55,0,.8l-4.7,2.8a4.52,4.52,0,0,1-4.23.12l-25.16-14.4a4.55,4.55,0,0,1-2.52-4.06v-6C256.91,357.41,262,324.67,262,324.67Z"/><path class="cls-52" d="M288,337.74a7,7,0,0,1,2.83-3l68.84-39.64a4.46,4.46,0,0,1,.66,1.14L364,311a4.67,4.67,0,0,1,.31,1.57v24.47a4.54,4.54,0,0,1-2.3,4l-4.11,2.35a13,13,0,0,0,.18-2c0-5-3.55-7-7.92-4.51s-7.91,8.63-7.91,13.65a8.71,8.71,0,0,0,.15,1.67l-33.09,18.7c0-.34.05-.68.05-1,0-5-3.55-7-7.92-4.51S293.49,374,293.49,379c0,.28,0,.55,0,.8l-4.7,2.8a4.57,4.57,0,0,1-3,.51V373.7C285.8,372.53,288,337.74,288,337.74Z"/><path class="cls-53" d="M262,324.67a4.58,4.58,0,0,1,1.54-1.46l70-40.36a4.53,4.53,0,0,1,4.44-.05l20.27,11.1a4.48,4.48,0,0,1,1.37,1.19l-68.83,39.63a7,7,0,0,0-2.83,3s-2.16,34.79-2.16,36v9.44a4.26,4.26,0,0,1-1.21-.38l-25.16-14.4a4.55,4.55,0,0,1-2.52-4.06v-6C256.91,357.41,262,324.67,262,324.67Z"/><path d="M338.1,316.52v10.91a1.4,1.4,0,0,0,.43,1,1.45,1.45,0,0,0,1,.41h0a1.49,1.49,0,0,0,.68-.17l17.25-9.62a3.15,3.15,0,0,0,1.66-2.78V304.87a1.44,1.44,0,0,0-1.43-1.44,1.42,1.42,0,0,0-.72.2L339.66,313.8A3.17,3.17,0,0,0,338.1,316.52Z"/><path class="cls-54" d="M357.69,304a.83.83,0,0,1,.83.83v11.42a2.57,2.57,0,0,1-1.34,2.25l-17.26,9.62a.83.83,0,0,1-1.22-.73V316.52a2.56,2.56,0,0,1,1.26-2.2l17.31-10.17A.78.78,0,0,1,357.69,304Z"/><path d="M289.22,345v10.9a1.4,1.4,0,0,0,.43,1,1.45,1.45,0,0,0,1,.41h0a1.49,1.49,0,0,0,.68-.17l17.25-9.62a3.16,3.16,0,0,0,1.66-2.78V333.3a1.42,1.42,0,0,0-2.15-1.24l-17.31,10.17A3.16,3.16,0,0,0,289.22,345Z"/><path class="cls-55" d="M308.81,332.46a.84.84,0,0,1,.83.84v11.42A2.57,2.57,0,0,1,308.3,347L291,356.58a.85.85,0,0,1-1-.13.84.84,0,0,1-.25-.6V345a2.55,2.55,0,0,1,1.26-2.2l17.31-10.17A.79.79,0,0,1,308.81,332.46Z"/><path d="M315.62,322.18v1.91a1.14,1.14,0,0,0,1.14,1.14h0a1.13,1.13,0,0,0,.54-.13l13.75-7.66a2.52,2.52,0,0,0,1.32-2.21v-2.34a1.15,1.15,0,0,0-1.14-1.14,1.21,1.21,0,0,0-.58.16L316.87,320A2.52,2.52,0,0,0,315.62,322.18Z"/><path class="cls-56" d="M331.23,312.23a.67.67,0,0,1,.66.66v2.34a2,2,0,0,1-1.07,1.79l-13.74,7.66a.7.7,0,0,1-.78-.11.67.67,0,0,1-.2-.48v-1.91a2.06,2.06,0,0,1,1-1.76l13.78-8.1A.69.69,0,0,1,331.23,312.23Z"/><path class="cls-57" d="M260.18,364.37l.57,3.88s-3.45-1.9-3.69-2.69a49.93,49.93,0,0,1-.17-5.72l1,1.12h0A4.79,4.79,0,0,1,260.18,364.37Z"/><path class="cls-58" d="M260.18,364.37l.57,3.88a41.41,41.41,0,0,1-2.57-4.3c-.24-.79-1.29-4.11-1.29-4.11l1,1.12h0A4.79,4.79,0,0,1,260.18,364.37Z"/><path class="cls-59" d="M287,333.48l-17.67-10.07a1.2,1.2,0,0,1,0-2.08l64.88-37.08a2.78,2.78,0,0,1,2.75,0l18,10.06a1.06,1.06,0,0,1,0,1.84l-65,37.34A3,3,0,0,1,287,333.48Z"/><path class="cls-60" d="M306.61,364.63l38-22a16.1,16.1,0,0,0-2.4,7.89,8.71,8.71,0,0,0,.15,1.67l-33.09,18.7c0-.34.05-.68.05-1C309.32,367.18,308.27,365.34,306.61,364.63Z"/><path class="cls-61" d="M358,341.41c0-2.54-.91-4.31-2.38-5.11l8.5-5,.11,5.74a4.54,4.54,0,0,1-2.3,4l-4.11,2.35A13,13,0,0,0,358,341.41Z"/><path class="cls-62" d="M257.76,364l1.08,2s1.59-1.35,1.27-2S257.76,364,257.76,364Z"/><path class="cls-63" d="M259.13,365.39c0,.51-.33.74-.8.51a1.83,1.83,0,0,1-.89-1.37c0-.52.33-.75.79-.51A1.8,1.8,0,0,1,259.13,365.39Z"/><path class="cls-64" d="M257.28,362.32l.79,1.46s1.16-1,.92-1.44S257.28,362.32,257.28,362.32Z"/><path class="cls-65" d="M258.27,363.33c0,.38-.24.55-.58.37a1.31,1.31,0,0,1-.65-1c0-.38.24-.55.58-.38A1.33,1.33,0,0,1,258.27,363.33Z"/><path class="cls-66" d="M287.59,375.66h0c-1.53.94-2.13.61-3.76-.15h0a2.5,2.5,0,0,0-3.47,1.55l-.65,2.23,4,2.08c2.4.94,1.95.8,3.78-.07l.32-.19Z"/><path class="cls-67" d="M287.59,375.66h0c-1.53.94-2.13.61-3.76-.15h0a2.5,2.5,0,0,0-3.47,1.55l-.65,2.23,4.62.23A4,4,0,0,0,287.59,375.66Z"/><path class="cls-68" d="M281.1,377.18l1.43,3s4.34-2.69,3.91-3.61S281.1,377.18,281.1,377.18Z"/><ellipse class="cls-69" cx="281.79" cy="378.63" rx="0.98" ry="1.69" transform="translate(-152.57 193.97) rotate(-30.31)"/><path class="cls-70" d="M284.06,377.79l1.13,2.39s2.39-1.87,2-2.61S284.06,377.79,284.06,377.79Z"/><path class="cls-71" d="M285.56,379.49c0,.6-.42.85-.95.54a2.09,2.09,0,0,1-1-1.64c0-.61.43-.85,1-.55A2.1,2.1,0,0,1,285.56,379.49Z"/><path class="cls-72" d="M285.83,376.17a2.2,2.2,0,0,0,1.76-.51l.19,5.45a4.62,4.62,0,0,1-2,.86Z"/><path class="cls-40" d="M278.49,373.42l-.49,1.31a1.91,1.91,0,0,1-2.63,1c-1.81-.89-3.28-1.66-5.62-3.05-2.61-1.55-4.09-2.59-5.18-3.32a1.88,1.88,0,0,1-.84-1.47l-.14-2.41a.53.53,0,0,1,.83-.48c1.52,1,4.07,2.76,6.82,4.32a67.28,67.28,0,0,0,7,3.39A.54.54,0,0,1,278.49,373.42Z"/><path class="cls-73" d="M264.07,365a.6.6,0,0,0-.06.27l.14,2.41a2,2,0,0,0,.84,1.48c1.1.73,2.57,1.77,5.18,3.32,2.35,1.39,3.81,2.15,5.63,3.05a1.88,1.88,0,0,0,1.67,0,1.88,1.88,0,0,1-2.1.28c-1.81-.89-3.28-1.66-5.62-3.05-2.61-1.55-4.09-2.59-5.18-3.32a1.88,1.88,0,0,1-.84-1.47l-.14-2.41A.52.52,0,0,1,264.07,365Z"/><polygon class="cls-74" points="363.75 320.23 290.2 361.96 294.32 363.59 363.81 324.58 363.75 320.23"/><path class="cls-75" d="M286.89,345.3c-.28,4.67-.53,10.8-.95,17.9a.9.9,0,0,1-.9.84c-2.73,0-8.38-2.24-13.27-5.06-6.24-3.6-10.26-6.39-12.51-10.07a1.54,1.54,0,0,1-.19-1.05c.93-6.13,1.78-11.85,2.53-16.48a1,1,0,0,1,1.55-.74l22.91,13.15A1.65,1.65,0,0,1,286.89,345.3Z"/><path class="cls-76" d="M285.42,362.67c.43-7.28.56-12.39.84-17.22a1.31,1.31,0,0,0-.67-1.22L262.73,331.1a.33.33,0,0,0-.5.25c-.8,5.09-1.53,9.74-2.51,16.21,2.15,3.73,6.32,6.6,12.46,10.14,4.57,2.64,10.24,5,13,5Z"/><path class="cls-77" d="M259.84,346.78c.92-6,1.62-10.55,2.39-15.43a.33.33,0,0,1,.5-.25l22.86,13.13a1.31,1.31,0,0,1,.67,1.22c-.07,1.22-.13,2.46-.19,3.74a48.31,48.31,0,0,1-9.26.87A41.38,41.38,0,0,1,259.84,346.78Z"/><path class="cls-40" d="M260.86,353.77c1.82,3,5.07,5.24,10.12,8.16,4,2.28,8.53,4.09,10.75,4.09.38,0,.38.42,0,.42-2.22,0-6.79-1.81-10.75-4.09-5.05-2.92-8.3-5.18-10.12-8.16C260.7,353.94,260.77,353.63,260.86,353.77Z"/><path class="cls-78" d="M252.52,386l7.87,13.35s23-16.89,23-20.65c0-1.64-.57-2-1.83-2S252.52,386,252.52,386Z"/><path class="cls-79" d="M254.46,391l2.89,5.32s25.41-15.64,25.78-17.19.12-2.2-1.25-2.39S254.46,391,254.46,391Z"/><path class="cls-80" d="M263.22,384.25,269,394s16.86-12.39,16.86-15.16c0-1.19-.42-1.47-1.35-1.47S263.22,384.25,263.22,384.25Z"/><path class="cls-81" d="M264.64,388l2.12,3.9s18.65-11.47,18.92-12.61.09-1.62-.92-1.76S264.64,388,264.64,388Z"/><path class="cls-82" d="M236.22,368.77l5.77,9.79s16.87-12.39,16.87-15.15c0-1.2-.42-1.48-1.35-1.48S236.22,368.77,236.22,368.77Z"/><path class="cls-83" d="M237.64,372.48l2.12,3.91s18.65-11.48,18.92-12.62.09-1.61-.92-1.75S237.64,372.48,237.64,372.48Z"/><path class="cls-84" d="M229,372.8l7.87,13.35s23-16.88,23-20.65c0-1.63-.57-2-1.84-2S229,372.8,229,372.8Z"/><path class="cls-85" d="M231,377.86l2.89,5.33s25.4-15.64,25.78-17.19.11-2.21-1.25-2.4S231,377.86,231,377.86Z"/><path d="M332.05,304.66l-13.45-8c-.8-.46-.7-1.26.22-1.79l12.54-7.46a3.46,3.46,0,0,1,3.11-.13l13.45,8c.8.46.7,1.26-.22,1.8l-12.54,7.45A3.46,3.46,0,0,1,332.05,304.66Z"/><path class="cls-86" d="M333.4,304.31a2.88,2.88,0,0,0,1.43-.35l12.54-7.45c.36-.21.43-.39.43-.45s-.06-.13-.21-.21l-13.45-8a2.11,2.11,0,0,0-1-.22,3,3,0,0,0-1.43.35l-12.53,7.45c-.37.21-.44.4-.44.45s.06.13.21.21l13.45,8a2.28,2.28,0,0,0,1,.21Z"/><polygon class="cls-87" points="294.55 328.73 329.06 308.77 327.14 306.36 296.85 323.92 294.55 328.73"/><polygon class="cls-88" points="278.3 319.25 294.56 328.73 296.86 323.92 280.6 314.45 278.3 319.25"/><polygon class="cls-89" points="280.6 314.45 296.86 323.92 327.14 306.36 310.86 296.88 280.6 314.45"/><polygon class="cls-90" points="280.6 314.45 296.86 323.92 327.14 306.36 310.86 296.88 280.6 314.45"/><path class="cls-91" d="M282.49,339.89a.53.53,0,0,0,.78-.47,9.2,9.2,0,0,1,.12-1.68,2,2,0,0,0-1.11-2l-15.17-8.56a.55.55,0,0,0-.28-.07.6.6,0,0,0-.6.51c-.19,1.15-.25,1.49-.31,1.93a1.35,1.35,0,0,0,.69,1.38Z"/><path class="cls-92" d="M265.56,329.7a1.35,1.35,0,0,0,.69,1.39l16.22,9.16a.74.74,0,0,0,1.1-.64,13.51,13.51,0,0,1,.15-1.84,2.38,2.38,0,0,0-1.29-2.34l-15.18-8.56a.92.92,0,0,0-.67-.07,1,1,0,0,0-.68.79C265.7,328.83,265.63,329.23,265.56,329.7Zm17.71,9.64a.57.57,0,0,1-.85.51l-15.81-8.94a1.35,1.35,0,0,1-.69-1.38c.06-.44.12-.78.31-1.93a.6.6,0,0,1,.6-.51.55.55,0,0,1,.28.07l15.17,8.56a2,2,0,0,1,1.11,2A9.52,9.52,0,0,0,283.27,339.34Z"/><polygon class="cls-93" points="267.73 328.76 280.89 336.39 280.9 337.71 267.73 330.07 267.73 328.76"/><polygon class="cls-94" points="330.65 314.17 317.49 321.8 317.48 323.11 330.65 315.48 330.65 314.17"/><path d="M334.92,316.94a1.42,1.42,0,0,0-.72.2L313.78,329a3.16,3.16,0,0,0-1.56,2.72V365a1.4,1.4,0,0,0,.43,1,1.45,1.45,0,0,0,1,.41,1.49,1.49,0,0,0,.68-.17l20.37-11.79a3.14,3.14,0,0,0,1.65-2.77V318.37A1.43,1.43,0,0,0,334.92,316.94Z"/><path class="cls-95" d="M334.92,317.54a.83.83,0,0,1,.83.83V351.7a2.53,2.53,0,0,1-1.34,2.24L326,358.7a.82.82,0,0,1-1.22-.73V324.7a2.54,2.54,0,0,1,1.26-2.2l8.43-4.84A.78.78,0,0,1,334.92,317.54Z"/><path class="cls-96" d="M322.92,324.56a.83.83,0,0,1,.83.83v33.33a2.53,2.53,0,0,1-1.34,2.24L314,365.72a.83.83,0,0,1-1-.13.84.84,0,0,1-.25-.6V331.72a2.54,2.54,0,0,1,1.26-2.2l8.43-4.84A.78.78,0,0,1,322.92,324.56Z"/><path class="cls-97" d="M357.69,304a.78.78,0,0,0-.42.11L340,314.32a2.56,2.56,0,0,0-1.26,2.2v5.89A2.56,2.56,0,0,1,340,320.2L357.27,310a.88.88,0,0,1,.42-.11.83.83,0,0,1,.83.83v-5.88A.83.83,0,0,0,357.69,304Z"/><path class="cls-98" d="M308.81,332.46a.79.79,0,0,0-.42.12l-17.31,10.17a2.55,2.55,0,0,0-1.26,2.2v5.88a2.56,2.56,0,0,1,1.26-2.2l17.31-10.17a.88.88,0,0,1,.42-.11.83.83,0,0,1,.83.83v-5.89A.83.83,0,0,0,308.81,332.46Z"/><path class="cls-99" d="M334.92,317.54a.78.78,0,0,0-.41.12l-8.43,4.84a2.54,2.54,0,0,0-1.26,2.2v5.88a2.55,2.55,0,0,1,1.26-2.2l8.43-4.84a.77.77,0,0,1,.41-.11.83.83,0,0,1,.83.83v-5.89A.83.83,0,0,0,334.92,317.54Z"/><path class="cls-100" d="M322.92,324.56a.78.78,0,0,0-.41.12l-8.43,4.84a2.54,2.54,0,0,0-1.26,2.2v5.88a2.56,2.56,0,0,1,1.26-2.2l8.43-4.84a.87.87,0,0,1,.41-.11.83.83,0,0,1,.83.83v-5.89A.83.83,0,0,0,322.92,324.56Z"/><g class="cls-101"><ellipse class="cls-102" cx="306.69" cy="111.57" rx="10.3" ry="17.84" transform="translate(-14.38 170.03) rotate(-30.31)"/></g><g class="cls-101"><ellipse class="cls-103" cx="306.69" cy="153.11" rx="10.3" ry="17.84" transform="translate(-35.35 175.71) rotate(-30.31)"/></g><g class="cls-101"><ellipse class="cls-104" cx="306.69" cy="194.66" rx="10.3" ry="17.84" transform="translate(-56.32 181.39) rotate(-30.31)"/></g><g class="cls-101"><ellipse class="cls-105" cx="306.69" cy="236.21" rx="10.3" ry="17.84" transform="translate(-77.29 187.07) rotate(-30.31)"/></g><ellipse class="cls-106" cx="295.19" cy="116.57" rx="10.3" ry="17.84" transform="translate(-18.48 164.91) rotate(-30.31)"/><path class="cls-31" d="M289.51,100.81c-4,0-6.48,3.23-6.48,8.45,0,7.85,5.57,17.45,12.41,21.39a11,11,0,0,0,5.43,1.68c4,0,6.47-3.24,6.47-8.46,0-7.85-5.56-17.44-12.4-21.39A11,11,0,0,0,289.51,100.81Zm11.36,32.52a12,12,0,0,1-5.93-1.81c-7.12-4.11-12.91-14.09-12.91-22.26,0-5.74,2.94-9.45,7.48-9.45a12,12,0,0,1,5.93,1.8c7.11,4.11,12.9,14.1,12.9,22.26C308.34,129.61,305.41,133.33,300.87,133.33Z"/><ellipse class="cls-107" cx="295.19" cy="158.12" rx="10.3" ry="17.84" transform="translate(-39.45 170.59) rotate(-30.31)"/><path class="cls-31" d="M289.51,142.36c-4,0-6.48,3.23-6.48,8.45,0,7.85,5.57,17.44,12.41,21.39a11,11,0,0,0,5.43,1.68c4,0,6.47-3.24,6.47-8.46,0-7.85-5.56-17.44-12.4-21.39A11,11,0,0,0,289.51,142.36Zm11.36,32.52a12,12,0,0,1-5.93-1.81C287.82,169,282,159,282,150.81c0-5.74,2.94-9.45,7.48-9.45a12,12,0,0,1,5.93,1.8c7.11,4.11,12.9,14.09,12.9,22.26C308.34,171.16,305.41,174.88,300.87,174.88Z"/><ellipse class="cls-108" cx="295.19" cy="199.66" rx="10.3" ry="17.84" transform="translate(-60.42 176.27) rotate(-30.31)"/><path class="cls-31" d="M289.51,183.9c-4,0-6.48,3.24-6.48,8.46,0,7.85,5.57,17.44,12.41,21.39a11,11,0,0,0,5.43,1.67c4,0,6.47-3.23,6.47-8.45,0-7.85-5.56-17.45-12.4-21.39A11,11,0,0,0,289.51,183.9Zm11.36,32.52a11.93,11.93,0,0,1-5.93-1.8c-7.12-4.11-12.91-14.1-12.91-22.26,0-5.75,2.94-9.46,7.48-9.46a12,12,0,0,1,5.93,1.81c7.11,4.11,12.9,14.09,12.9,22.26C308.34,212.71,305.41,216.42,300.87,216.42Z"/><ellipse class="cls-109" cx="295.19" cy="241.21" rx="10.3" ry="17.84" transform="translate(-81.39 181.95) rotate(-30.31)"/><path class="cls-31" d="M289.51,225.45c-4,0-6.48,3.24-6.48,8.46,0,7.84,5.57,17.44,12.41,21.39a11,11,0,0,0,5.43,1.67c4,0,6.47-3.23,6.47-8.45,0-7.85-5.56-17.45-12.4-21.4A11.1,11.1,0,0,0,289.51,225.45ZM300.87,258a11.93,11.93,0,0,1-5.93-1.8c-7.12-4.11-12.91-14.1-12.91-22.26,0-5.75,2.93-9.46,7.48-9.46a12,12,0,0,1,5.93,1.81c7.11,4.11,12.9,14.09,12.9,22.26C308.34,254.26,305.41,258,300.87,258Z"/><path class="cls-36" d="M340,101.7c0,1.86-1.31,2.61-2.93,1.67a6.43,6.43,0,0,1-2.93-5.05c0-1.86,1.31-2.61,2.93-1.67A6.45,6.45,0,0,1,340,101.7Z"/><path class="cls-36" d="M340,111.33c0,1.86-1.31,2.61-2.93,1.67a6.45,6.45,0,0,1-2.93-5.06c0-1.85,1.31-2.6,2.93-1.67A6.47,6.47,0,0,1,340,111.33Z"/><path class="cls-36" d="M340,121c0,1.86-1.31,2.61-2.93,1.68a6.47,6.47,0,0,1-2.93-5.06c0-1.86,1.31-2.61,2.93-1.67A6.45,6.45,0,0,1,340,121Z"/><path class="cls-36" d="M340,130.58c0,1.86-1.31,2.61-2.93,1.67a6.45,6.45,0,0,1-2.93-5.06c0-1.85,1.31-2.6,2.93-1.67A6.47,6.47,0,0,1,340,130.58Z"/><polygon class="cls-36" points="296.36 114.94 288.43 110.36 288.43 115.87 296.36 120.44 296.36 124.36 303.92 122.05 296.36 111.02 296.36 114.94"/><path class="cls-36" d="M295.22,149.67c-3-1.74-5.47-.35-5.47,3.12,0,6.5,5.47,15.13,5.47,15.13a9.68,9.68,0,0,0,5.46-8.82A12,12,0,0,0,295.22,149.67Zm0,9.12a5.45,5.45,0,0,1-2.49-4.28c0-1.58,1.11-2.21,2.49-1.42a5.47,5.47,0,0,1,2.48,4.29C297.7,159,296.59,159.59,295.22,158.79Z"/><path class="cls-36" d="M300.79,207.43l-2.13-3.56a1.65,1.65,0,0,0-1.32-1l-.57-1c1.5-1.41,1.35-4.74-.45-7.86-2-3.4-5.18-5.25-7.15-4.13s-2,4.8,0,8.21c1.8,3.11,4.63,4.92,6.62,4.34l.56,1a1.61,1.61,0,0,0,.17,1.61l2.14,3.57c.42.74,1.12,1.14,1.54.89l.59-.33C301.22,209,301.22,208.17,300.79,207.43Zm-5.69-7.26c-1.3.74-3.41-.48-4.71-2.72s-1.3-4.66,0-5.4,3.41.47,4.71,2.72S296.4,199.43,295.1,200.17Zm-1.44-6.33-1.83-1.06v1.76l-1.54-.88v2.1l1.54.89v1.76l1.83,1.06v-1.76l1.54.88v-2.1l-1.54-.89Z"/><path class="cls-36" d="M301.32,249.46l-2.14-3.57a1.66,1.66,0,0,0-1.32-1l-.56-1c1.5-1.4,1.35-4.74-.46-7.85-2-3.41-5.17-5.25-7.15-4.13s-2,4.8,0,8.2c1.81,3.12,4.64,4.92,6.62,4.35l.57,1a1.63,1.63,0,0,0,.17,1.62l2.13,3.57c.43.73,1.12,1.13,1.55.89l.59-.33C301.74,251,301.74,250.2,301.32,249.46Zm-5.7-7.26c-1.3.74-3.41-.48-4.71-2.72s-1.3-4.66,0-5.41,3.41.48,4.71,2.72S296.92,241.45,295.62,242.2Zm-4.8-4.41,4.91,2.83v-2.1l-4.91-2.84Z"/></g></g></svg>