<?xml version="1.0" encoding="UTF-8" standalone="no"?>
<svg
   xmlns:dc="http://purl.org/dc/elements/1.1/"
   xmlns:cc="http://creativecommons.org/ns#"
   xmlns:rdf="http://www.w3.org/1999/02/22-rdf-syntax-ns#"
   xmlns:svg="http://www.w3.org/2000/svg"
   xmlns="http://www.w3.org/2000/svg"
   viewBox="0 0 591.03998 799.85333"
   height="799.85333"
   width="591.03998"
   xml:space="preserve"
   id="svg2"
   version="1.1"><metadata
     id="metadata8"><rdf:RDF><cc:Work
         rdf:about=""><dc:format>image/svg+xml</dc:format><dc:type
           rdf:resource="http://purl.org/dc/dcmitype/StillImage" /></cc:Work></rdf:RDF></metadata><defs
     id="defs6"><clipPath
       id="clipPath18"
       clipPathUnits="userSpaceOnUse"><path
         id="path16"
         d="M 0,599.89 H 443.28 V 0 H 0 Z" /></clipPath></defs><g
     transform="matrix(1.3333333,0,0,-1.3333333,0,799.85333)"
     id="g10"><g
       id="g12"><g
         clip-path="url(#clipPath18)"
         id="g14"><g
           transform="translate(66.1187,159.138)"
           id="g20"><path
             id="path22"
             style="fill:#373535;fill-opacity:1;fill-rule:nonzero;stroke:none"
             d="m 0,0 h 305.801 c 0,0 -24.134,-113.08 -152.951,-113.08 0,0 -105.495,-15.81 -152.85,113.08" /></g><g
           transform="translate(302.0869,275.2572)"
           id="g24"><path
             id="path26"
             style="fill:none;stroke:#373535;stroke-width:4.44299984;stroke-linecap:butt;stroke-linejoin:miter;stroke-miterlimit:4;stroke-dasharray:none;stroke-opacity:1"
             d="m 0,0 c 31.583,0 57.155,5.786 57.155,12.931 0,7.145 -25.572,12.946 -57.155,12.946 -31.575,0 -57.162,-5.801 -57.162,-12.946 C -57.162,5.786 -31.575,0 0,0 Z" /></g><g
           transform="translate(314.9814,288.1879)"
           id="g28"><path
             id="path30"
             style="fill:none;stroke:#373535;stroke-width:4.44299984;stroke-linecap:butt;stroke-linejoin:miter;stroke-miterlimit:4;stroke-dasharray:none;stroke-opacity:1"
             d="m 0,0 c 0,31.735 -5.8,57.452 -12.895,57.452 -7.13,0 -12.873,-25.717 -12.873,-57.452 0,-31.734 5.743,-57.437 12.873,-57.437 C -5.8,-57.437 0,-31.734 0,0 Z" /></g><g
           transform="translate(292.9746,279.0472)"
           id="g32"><path
             id="path34"
             style="fill:none;stroke:#373535;stroke-width:4.44299984;stroke-linecap:butt;stroke-linejoin:miter;stroke-miterlimit:4;stroke-dasharray:none;stroke-opacity:1"
             d="M 0,0 C -22.318,22.404 -36.334,44.708 -31.301,49.756 -26.296,54.804 -4.107,40.731 18.232,18.297 40.536,-4.151 54.552,-26.427 49.518,-31.489 44.499,-36.537 22.325,-22.435 0,0 Z" /></g><g
           transform="translate(292.9746,297.3441)"
           id="g36"><path
             id="path38"
             style="fill:none;stroke:#373535;stroke-width:4.44299984;stroke-linecap:butt;stroke-linejoin:miter;stroke-miterlimit:4;stroke-dasharray:none;stroke-opacity:1"
             d="M 0,0 C 22.325,22.434 44.499,36.507 49.518,31.459 54.552,26.412 40.536,4.107 18.232,-18.297 -4.107,-40.731 -26.296,-54.834 -31.301,-49.786 -36.334,-44.724 -22.318,-22.448 0,0 Z" /></g><g
           transform="translate(136.3633,233.4554)"
           id="g40"><path
             id="path42"
             style="fill:none;stroke:#373535;stroke-width:3.70300007;stroke-linecap:butt;stroke-linejoin:miter;stroke-miterlimit:4;stroke-dasharray:none;stroke-opacity:1"
             d="M 0,0 49.865,15.781 V 86.337 L 0,68.72 -49.901,86.337 V 15.781 Z" /></g><g
           transform="translate(136.3633,302.1752)"
           id="g44"><path
             id="path46"
             style="fill:none;stroke:#373535;stroke-width:3.70300007;stroke-linecap:butt;stroke-linejoin:miter;stroke-miterlimit:4;stroke-dasharray:none;stroke-opacity:1"
             d="M 0,0 V -67.1" /></g><g
           transform="translate(167.1362,166.8773)"
           id="g48"><path
             id="path50"
             style="fill:#373535;fill-opacity:1;fill-rule:nonzero;stroke:none"
             d="m 0,0 h -86.865 l 43.436,25.687 z" /></g><g
           transform="translate(167.1362,166.8773)"
           id="g52"><path
             id="path54"
             style="fill:none;stroke:#373535;stroke-width:2.98799992;stroke-linecap:butt;stroke-linejoin:miter;stroke-miterlimit:4;stroke-dasharray:none;stroke-opacity:1"
             d="m 0,0 h -86.865 l 43.436,25.687 z" /></g><g
           transform="translate(263.0332,166.8773)"
           id="g56"><path
             id="path58"
             style="fill:#373535;fill-opacity:1;fill-rule:nonzero;stroke:none"
             d="m 0,0 h -86.843 l 43.437,25.602 z" /></g><g
           transform="translate(263.0332,166.8773)"
           id="g60"><path
             id="path62"
             style="fill:none;stroke:#373535;stroke-width:2.98799992;stroke-linecap:butt;stroke-linejoin:miter;stroke-miterlimit:4;stroke-dasharray:none;stroke-opacity:1"
             d="m 0,0 h -86.843 l 43.437,25.602 z" /></g><g
           transform="translate(357.333,166.8773)"
           id="g64"><path
             id="path66"
             style="fill:#373535;fill-opacity:1;fill-rule:nonzero;stroke:none"
             d="M 0,0 H -86.865 L -43.45,25.891 Z" /></g><g
           transform="translate(357.333,166.8773)"
           id="g68"><path
             id="path70"
             style="fill:none;stroke:#373535;stroke-width:2.98799992;stroke-linecap:butt;stroke-linejoin:miter;stroke-miterlimit:4;stroke-dasharray:none;stroke-opacity:1"
             d="M 0,0 H -86.865 L -43.45,25.891 Z" /></g><g
           transform="translate(218.9756,42.933)"
           id="g72"><path
             id="path74"
             style="fill:none;stroke:#373535;stroke-width:29.62299919;stroke-linecap:butt;stroke-linejoin:miter;stroke-miterlimit:4;stroke-dasharray:none;stroke-opacity:1"
             d="m 0,0 c -91.565,0 -179.595,75.575 -165.781,258.013 0,0 -2.951,62.47 46.227,204.841 l -13.394,-45.562 c 0,0 -22.94,-54.718 1.085,-67.721 0,0 82.222,-69.631 107.013,175.262 l 51.364,-0.057 c 21.767,-246.701 105.84,-174.265 105.84,-174.265 19.397,13.004 -0.346,66.695 -0.346,66.695 L 116.95,462.854 C 168.775,320.483 164.855,257.94 164.855,257.94 178.654,75.504 90.61,-0.071 -0.94,-0.071 Z" /></g><g
           transform="translate(61.3086,368.4647)"
           id="g76"><path
             id="path78"
             style="fill:#373535;fill-opacity:1;fill-rule:nonzero;stroke:#373535;stroke-width:22.21699905;stroke-linecap:butt;stroke-linejoin:miter;stroke-miterlimit:4;stroke-dasharray:none;stroke-opacity:1"
             d="M 0,0 H 309.187" /></g><g
           transform="translate(55.7544,209.9945)"
           id="g80"><path
             id="path82"
             style="fill:#373535;fill-opacity:1;fill-rule:nonzero;stroke:#373535;stroke-width:22.21699905;stroke-linecap:butt;stroke-linejoin:miter;stroke-miterlimit:4;stroke-dasharray:none;stroke-opacity:1"
             d="M 0,0 H 319.051" /></g><g
           transform="translate(220.2187,373.4833)"
           id="g84"><path
             id="path86"
             style="fill:none;stroke:#373535;stroke-width:22.21699905;stroke-linecap:butt;stroke-linejoin:miter;stroke-miterlimit:4;stroke-dasharray:none;stroke-opacity:1"
             d="M 0,0 V -170.836" /></g><g
           transform="translate(144.6035,145.4486)"
           id="g88"><path
             id="path90"
             style="fill:none;stroke:#ffffff;stroke-width:2.81500006;stroke-linecap:butt;stroke-linejoin:miter;stroke-miterlimit:4;stroke-dasharray:none;stroke-opacity:1"
             d="m 0,0 -18.052,-16.73 c 0,0 16.662,-12.629 36.036,0 z" /></g><g
           transform="translate(182.3076,145.5306)"
           id="g92"><path
             id="path94"
             style="fill:none;stroke:#ffffff;stroke-width:2.81500006;stroke-linecap:butt;stroke-linejoin:miter;stroke-miterlimit:4;stroke-dasharray:none;stroke-opacity:1"
             d="m 0,0 -18.038,-16.703 c 0,0 16.662,-12.643 36.035,0 z" /></g><g
           transform="translate(219.9907,145.6527)"
           id="g96"><path
             id="path98"
             style="fill:none;stroke:#ffffff;stroke-width:2.81500006;stroke-linecap:butt;stroke-linejoin:miter;stroke-miterlimit:4;stroke-dasharray:none;stroke-opacity:1"
             d="m 0,0 -18.051,-16.73 c 0,0 16.661,-12.657 36.021,0 z" /></g><g
           transform="translate(257.4834,145.5843)"
           id="g100"><path
             id="path102"
             style="fill:none;stroke:#ffffff;stroke-width:2.81500006;stroke-linecap:butt;stroke-linejoin:miter;stroke-miterlimit:4;stroke-dasharray:none;stroke-opacity:1"
             d="m 0,0 -18.051,-16.743 c 0,0 16.661,-12.603 36.063,0 z" /></g><g
           transform="translate(294.9629,145.516)"
           id="g104"><path
             id="path106"
             style="fill:none;stroke:#ffffff;stroke-width:2.81500006;stroke-linecap:butt;stroke-linejoin:miter;stroke-miterlimit:4;stroke-dasharray:none;stroke-opacity:1"
             d="m 0,0 -17.997,-16.729 c 0,0 16.648,-12.629 36.056,0 z" /></g><g
           transform="translate(115.1895,112.9964)"
           id="g108"><path
             id="path110"
             style="fill:#ffffff;fill-opacity:1;fill-rule:nonzero;stroke:none"
             d="m 0,0 -7.016,-6.213 c -0.218,-0.218 -0.422,-0.49 -0.164,-0.776 1.268,-1.444 6.431,-1.39 7.766,-0.069 l 0.313,0.355 C 0.054,-4.428 -0.572,-2.479 0,0 M 2.889,2.452 C 0.205,-1.676 6.908,-6.349 3.488,-9.387 0.859,-11.716 -6.853,-12.302 -9.305,-9.496 c -0.94,1.063 -0.477,4.333 0.532,5.246 l 9.863,8.746 -1.662,1.907 0.327,3.734 11.199,-12.753 -0.232,-3.828 z" /></g><g
           transform="translate(130.2168,102.724)"
           id="g112"><path
             id="path114"
             style="fill:#ffffff;fill-opacity:1;fill-rule:nonzero;stroke:none"
             d="m 0,0 -6.703,-7.67 c -0.422,-0.49 -0.776,-1.308 -0.177,-1.853 1.512,-1.322 3.978,-0.327 5.204,0.762 -0.354,1.064 -0.041,2.318 0.681,3.12 0.9,1.063 2.82,1.649 3.965,0.641 1.771,-1.539 0.926,-3.855 -0.395,-5.354 -1.676,-1.921 -2.807,-1.839 -4.728,-2.902 l 0.083,0.177 c -0.029,0.055 0,0.15 0.04,0.123 0.354,-0.3 -1.321,-3.201 -1.635,-3.57 -2.261,-2.575 -4.932,-2.67 -7.493,-0.409 -3.937,3.475 -2.602,10.096 0.232,13.856 l 0.681,-1.649 c -0.709,-3.214 -2.453,-6.566 0.613,-9.277 1.022,-0.872 3.801,-2.221 4.932,-0.886 0.19,0.177 0.477,1.077 0.626,1.363 -1.539,0.095 -3.215,0.136 -4.454,1.225 -4.742,4.156 4.55,11.799 6.566,14.06 l -2.807,2.48 -0.163,3.76 11.158,-9.836 c 0.259,-0.19 0.872,0.163 1.022,0.34 0.885,0.995 -4.319,4.728 -5.123,5.45 -1.907,1.662 -4.141,5.081 -2.043,7.466 0.708,0.804 1.92,1.267 2.97,1.308 L 3.814,10.79 C 3.229,10.995 2.289,11.321 1.866,10.722 L 1.553,10.313 C 2.302,7.82 4.005,6.989 5.845,5.368 8.624,2.929 10.913,0.014 8.174,-3.528 l 0.655,-0.6 0.217,-3.828 z" /></g><g
           transform="translate(151.8789,86.4984)"
           id="g116"><path
             id="path118"
             style="fill:#ffffff;fill-opacity:1;fill-rule:nonzero;stroke:none"
             d="m 0,0 -10.504,-16.131 -0.9,4.005 c 1.567,2.426 3.243,4.81 4.823,7.222 1.554,2.37 2.561,7.015 -0.326,8.882 -1.254,0.844 -2.643,1.076 -4.047,0.368 0.504,-0.177 0.94,-0.423 1.363,-0.708 1.43,-0.941 2.724,-3.026 1.634,-4.688 -1.335,-2.084 -4.55,-2.765 -6.784,-3.419 l -0.763,3.964 c 1.035,0.041 5.518,0.682 5.872,1.227 0.245,0.354 -0.191,0.925 -0.491,1.09 -1.104,0.735 -2.779,-0.014 -3.937,0.735 -1.063,0.709 -1.008,2.684 -0.395,3.624 1.703,2.602 5.627,2.683 8.038,1.103 C -2.616,4.755 -2.82,1.362 -3.624,-2.63 -2.698,0.122 -1.581,2.603 0.013,5 L 1.239,6.812 2.111,4.209 C 1.825,4.06 1.553,3.787 1.389,3.542 1.321,3.419 1.253,2.766 1.239,2.603 1.553,2.193 2.03,1.689 2.547,1.58 l 0.764,-3.761 z" /></g><g
           transform="translate(139.6992,76.8666)"
           id="g120"><path
             id="path122"
             style="fill:#ffffff;fill-opacity:1;fill-rule:nonzero;stroke:none"
             d="m 0,0 c -1.431,0.789 -2.902,1.416 -4.319,2.192 -2.943,1.649 -4.809,5.096 -3.038,8.311 0.273,0.491 1.771,1.88 2.289,2.33 l 0.545,-1.621 C -4.81,11.008 -5.055,10.804 -5.205,10.503 -7.861,5.722 3.487,4.114 4.428,-1.895 4.904,-4.987 5.327,-5.178 3.665,-8.107 L 3.529,-8.352 C 1.853,-4.878 5.082,-2.849 0,0" /></g><g
           transform="translate(160.0391,82.3295)"
           id="g124"><path
             id="path126"
             style="fill:#ffffff;fill-opacity:1;fill-rule:nonzero;stroke:none"
             d="m 0,0 -8.869,-17.411 -1.117,3.528 5.668,11.13 c 1.199,2.357 1.716,4.292 -1.295,5.491 l -1.308,3.706 3.488,-1.785 c 0.954,-0.49 1.362,-1.771 1.512,-2.765 0.15,-1.39 -0.259,-2.684 -0.381,-4.034 0.082,-0.053 0.109,0.082 0.109,0.096 1.008,2.003 0.627,4.66 1.69,6.717 C -0.204,5.245 0.15,5.79 0.559,6.28 L 1.212,5.027 0.995,2.384 2.207,1.757 3.359,-1.73 Z" /></g><g
           transform="translate(174.6372,75.8031)"
           id="g128"><path
             id="path130"
             style="fill:#ffffff;fill-opacity:1;fill-rule:nonzero;stroke:none"
             d="m 0,0 -6.88,2.697 c 1.172,-1.702 2.452,-4.14 2.18,-6.307 -0.11,-1.199 -0.11,-2.358 -0.695,-3.407 0.627,-0.899 1.049,-2.382 1.349,-3.46 z m 2.466,-0.857 -6.907,-17.875 c -0.968,1.362 -0.382,8.787 -2.726,9.7 h -0.026 c -0.545,-0.845 -3.107,-0.804 -3.992,-0.45 -1.887,0.722 -2.95,2.371 -2.146,4.386 1.022,2.699 4.053,2.44 6.07,1.091 1.294,4.278 -3.475,5.04 -4.183,6.743 -0.715,1.826 -1.328,3.652 -2.051,5.491 L 4.36,1.239 5.885,-2.221 Z" /></g><g
           transform="translate(201.2583,77.806)"
           id="g132"><path
             id="path134"
             style="fill:#ffffff;fill-opacity:1;fill-rule:nonzero;stroke:none"
             d="m 0,0 c -3.392,0.654 -5.109,-0.627 -7.18,-3.119 l 0.355,-1.445 1.921,-0.355 2.125,-3.215 -3.774,0.749 -3.583,-18.719 -2.194,2.985 3.147,16.252 -2.52,0.45 -2.179,3.215 4.89,-0.953 c -0.463,0.776 -1.09,1.389 -0.912,2.356 0.695,3.611 5.313,5.478 8.569,4.837 C 3.488,2.098 6.24,-1.049 9.155,-4.55 L 9.537,-7.016 C 6.675,-3.991 4.278,-0.831 0,0" /></g><g
           transform="translate(209.3511,64.2777)"
           id="g136"><path
             id="path138"
             style="fill:#ffffff;fill-opacity:1;fill-rule:nonzero;stroke:none"
             d="m 0,0 c -2.262,-0.519 -4.401,-1.444 -6.499,-2.507 2.221,-1.199 4.564,-3.215 5.791,-5.423 z M 3.024,3.979 1.28,-15.286 c -2.847,1.621 -1.594,8.91 -10.517,10.368 l -2.466,3.882 C -8.27,0.845 -3.61,3.419 0.149,4.195 L -11.703,5.313 -14.06,8.229 4.7,6.525 7.057,3.609 Z" /></g><g
           transform="translate(233.5742,68.7591)"
           id="g140"><path
             id="path142"
             style="fill:#ffffff;fill-opacity:1;fill-rule:nonzero;stroke:none"
             d="m 0,0 1.021,-18.65 -2.901,2.343 -0.505,11.253 c -0.108,1.485 -2.043,3.46 -3.323,3.91 L -6.867,-1.498 -7.303,-2.18 c 1.404,-0.694 2.834,-2.097 2.903,-3.787 0.067,-1.403 -1.268,-2.56 -2.603,-2.642 -1.199,-0.055 -2.343,0.599 -2.901,1.689 -0.641,-1.021 -1.458,-2.003 -2.752,-2.071 -1.527,-0.081 -3.011,1.05 -3.094,2.589 -0.081,1.348 1.526,3.841 2.875,4.263 -1.744,1.827 -2.152,1.39 -4.822,1.2 l -2.821,2.547 4.851,0.273 c 1.92,0.082 3.732,-1.064 4.563,-2.82 0.667,1.212 2.67,3.161 4.074,3.255 2.998,0.137 4.645,-4.659 5.709,-6.634 -0.79,2.97 -1.404,5.899 -1.554,8.964 l -0.081,1.567 c 2.37,-1.866 2.125,-3.379 3.882,-3.405 l 2.793,-2.63 z" /></g><g
           transform="translate(233.084,59.4281)"
           id="g144"><path
             id="path146"
             style="fill:#ffffff;fill-opacity:1;fill-rule:nonzero;stroke:none"
             d="m 0,0 c -0.968,-0.669 -3.761,-2.861 -4.114,-3.896 1.511,-0.028 3.951,-2.032 5.027,-2.958 z m 1.866,-10.027 c -0.831,1.866 -5.49,3.091 -7.411,2.833 l -2.78,3.774 c 2.031,1.866 6.499,5.994 9.074,6.349 0.408,0.067 0.79,0.204 1.158,0.409 l 1.989,-13.897 z" /></g><g
           transform="translate(245.3447,79.3324)"
           id="g148"><path
             id="path150"
             style="fill:#ffffff;fill-opacity:1;fill-rule:nonzero;stroke:none"
             d="m 0,0 c -3.392,-0.573 -4.577,-2.357 -5.667,-5.437 l 0.845,-1.24 1.933,0.342 3.08,-2.263 -3.788,-0.64 3.148,-18.774 -3.12,2.017 -2.67,16.307 -2.521,-0.408 -3.134,2.221 4.906,0.845 c -0.709,0.545 -1.513,0.926 -1.662,1.866 -0.601,3.638 3.079,6.976 6.362,7.561 4.822,0.804 8.501,-1.185 12.438,-3.46 l 1.227,-2.18 C 7.644,-1.418 4.306,0.735 0,0" /></g><g
           transform="translate(257.5791,69.4955)"
           id="g152"><path
             id="path154"
             style="fill:#ffffff;fill-opacity:1;fill-rule:nonzero;stroke:none"
             d="m 0,0 c -1.935,-1.28 -3.597,-2.901 -5.218,-4.604 2.493,-0.369 5.396,-1.431 7.317,-3.066 z m 1.431,4.81 5.095,-18.693 c -3.27,0.545 -4.578,7.807 -13.461,6.035 l -3.664,2.808 c 2.535,2.929 6.022,6.988 9.291,9.045 l -11.54,-3.119 -3.187,1.907 18.202,5 3.2,-1.921 z" /></g><g
           transform="translate(266.3525,76.8519)"
           id="g156"><path
             id="path158"
             style="fill:#ffffff;fill-opacity:1;fill-rule:nonzero;stroke:none"
             d="m 0,0 2.943,-6.825 c 1.118,4.305 2.18,5.668 5.191,8.72 l 4.591,-0.996 c -0.422,-3.324 -0.109,-6.47 1.186,-9.577 0.749,-1.77 1.88,-3.42 2.997,-4.945 l -2.357,0.108 c -1.676,2.18 -3.242,4.346 -4.346,6.894 -0.517,1.226 -0.831,2.534 -1.05,3.843 -2.506,-2.344 -3.705,-5.941 -3.677,-9.36 l -4.033,1.526 -4.047,9.495 -1.852,-0.789 -3.515,1.443 17.915,7.725 3.583,-1.444 z" /></g><g
           transform="translate(286.8154,87.0697)"
           id="g160"><path
             id="path162"
             style="fill:#ffffff;fill-opacity:1;fill-rule:nonzero;stroke:none"
             d="m 0,0 c -1.62,-0.926 -2.52,-2.411 -1.512,-4.168 1.717,-3.106 4.373,-5.49 6.131,-8.597 1.28,-2.316 0.218,-6.853 -2.126,-8.188 -0.557,-0.299 -1.347,-0.314 -1.688,0.287 -0.451,0.871 3.16,2.629 1.062,6.361 -1.239,2.207 -3.61,3.624 -4.904,5.941 -1.24,2.179 -0.913,3.828 -0.641,6.144 l -4.155,-2.371 -3.719,1.049 9.209,5.204 3.774,-0.953 C 0.968,0.491 0.45,0.273 0,0" /></g><g
           transform="translate(292.1562,90.5716)"
           id="g164"><path
             id="path166"
             style="fill:#ffffff;fill-opacity:1;fill-rule:nonzero;stroke:none"
             d="m 0,0 10.729,-16.321 -3.604,0.762 -6.88,10.451 c -1.431,2.207 -2.861,3.61 -5.394,1.566 l -3.829,0.681 3.256,2.167 c 0.899,0.598 2.207,0.299 3.161,-0.042 1.253,-0.531 2.18,-1.539 3.311,-2.316 0.067,0.041 -0.041,0.109 -0.055,0.151 -1.226,1.852 -3.718,2.846 -4.986,4.795 -0.368,0.517 -0.641,1.103 -0.858,1.703 l 1.403,-0.028 2.18,-1.512 1.158,0.763 3.596,-0.722 z" /></g><g
           transform="translate(308.5127,103.1185)"
           id="g168"><path
             id="path170"
             style="fill:#ffffff;fill-opacity:1;fill-rule:nonzero;stroke:none"
             d="m 0,0 12.206,-14.727 -3.691,0.081 -6.513,7.903 c -0.477,0.586 -2.152,0.804 -2.807,0.259 -1.239,-1.036 0.219,-2.126 1.022,-2.807 l -1.089,-1.813 c -0.055,0.274 -0.109,0.505 -0.286,0.737 -1.076,1.294 -3.488,0.709 -4.606,-0.219 -1.287,-1.061 -1.559,-2.941 -0.476,-4.236 0.545,-0.695 1.539,-0.736 2.289,-0.436 -0.259,0.122 -0.45,0.3 -0.641,0.544 -0.817,0.995 -0.504,2.467 0.437,3.257 1.388,1.213 3.501,-0.014 4.509,-1.24 0.762,-0.94 -0.504,-2.984 -1.226,-3.57 -2.453,-2.029 -5.777,-2.111 -7.896,0.423 -1.621,1.975 -2.125,5.326 0,7.112 1.09,0.899 2.582,1.512 3.999,1.198 0.177,0.818 0.503,2.412 1.144,2.957 1.581,1.294 1.677,0.627 3.134,0.545 0.095,-0.054 0.572,-0.463 0.654,-0.408 0.054,0.068 -0.109,0.149 -0.137,0.19 l -2.07,2.521 -11.261,-9.387 -4.005,0.19 16.192,13.53 3.992,-0.178 z" /></g><g
           transform="translate(319.084,114.3177)"
           id="g172"><path
             id="path174"
             style="fill:#ffffff;fill-opacity:1;fill-rule:nonzero;stroke:none"
             d="m 0,0 -3.624,-4.046 c 1.839,0.34 3.692,0.327 5.559,0.273 0.109,-2.031 -0.068,-4.005 0.204,-6.104 2.179,1.254 4.686,1.798 7.194,1.444 z m 6.035,-16.021 c -0.899,0.831 -0.926,2.315 -0.122,3.255 0.79,0.872 2.385,1.227 3.365,0.369 0.9,-0.832 0.953,-2.357 0.136,-3.27 -0.804,-0.899 -2.397,-1.227 -3.379,-0.354 M 1.785,2.017 16.09,-10.898 c -5.845,-0.259 -8.324,2.656 -13.488,-2.548 l -4.482,0.176 c -0.082,2.331 -0.027,4.824 0.273,7.139 -4.905,-1.784 -3.747,-3.256 -10.41,-3.215 L 0.286,4.414 4.21,4.7 Z" /></g><g
           transform="translate(220.958,447.4672)"
           id="g176"><path
             id="path178"
             style="fill:#373535;fill-opacity:1;fill-rule:nonzero;stroke:none"
             d="m 0,0 c 1.026,-3.717 1.98,-7.391 3.08,-11.108 0.189,-0.665 0.579,-1.33 0.405,-2.126 -0.42,-2.43 -1.677,-4.137 -2.632,-6.133 0.665,1.36 1.316,2.72 1.996,4.064 -0.652,-1.764 -1.548,-3.182 -2.315,-4.787 0.68,1.359 1.36,2.705 2.011,4.021 -1.649,-4.368 -4.281,-6.886 -6.972,-9.098 -2.445,-1.982 -7.203,-4.701 -9.864,-5.497 -0.926,-0.274 -0.811,0.435 -1.722,0.42 -0.709,1.056 -1.518,2.488 -1.822,4.412 v 2.444 c -0.029,-1.518 1.721,-2.633 2.922,-3.081 2.444,-0.434 6.956,2.835 9.416,3.746 3.066,1.114 5.525,3.834 8.042,6.654 -0.651,-1.316 -1.331,-2.662 -2.011,-4.021 0.767,1.547 1.49,3.023 2.228,4.556 -0.651,-1.374 -1.36,-2.704 -2.011,-4.079 0.695,1.721 1.562,3.196 2.329,4.802 -0.68,-1.345 -1.359,-2.661 -2.011,-4.036 0.232,0.623 0.506,1.375 0.304,2.098 -1.258,4.18 -2.343,8.273 -3.456,12.439 z" /></g><g
           transform="translate(220.958,447.4672)"
           id="g180"><path
             id="path182"
             style="fill:none;stroke:#373535;stroke-width:0.889;stroke-linecap:butt;stroke-linejoin:miter;stroke-miterlimit:4;stroke-dasharray:none;stroke-opacity:1"
             d="m 0,0 c 1.026,-3.717 1.98,-7.391 3.08,-11.108 0.189,-0.665 0.579,-1.33 0.405,-2.126 -0.42,-2.43 -1.677,-4.137 -2.632,-6.133 0.665,1.36 1.316,2.72 1.996,4.064 -0.652,-1.764 -1.548,-3.182 -2.315,-4.787 0.68,1.359 1.36,2.705 2.011,4.021 -1.649,-4.368 -4.281,-6.886 -6.972,-9.098 -2.445,-1.982 -7.203,-4.701 -9.864,-5.497 -0.926,-0.274 -0.811,0.435 -1.722,0.42 -0.709,1.056 -1.518,2.488 -1.822,4.412 v 2.444 c -0.029,-1.518 1.721,-2.633 2.922,-3.081 2.444,-0.434 6.956,2.835 9.416,3.746 3.066,1.114 5.525,3.834 8.042,6.654 -0.651,-1.316 -1.331,-2.662 -2.011,-4.021 0.767,1.547 1.49,3.023 2.228,4.556 -0.651,-1.374 -1.36,-2.704 -2.011,-4.079 0.695,1.721 1.562,3.196 2.329,4.802 -0.68,-1.345 -1.359,-2.661 -2.011,-4.036 0.232,0.623 0.506,1.375 0.304,2.098 -1.258,4.18 -2.343,8.273 -3.456,12.439 z" /></g><g
           transform="translate(222.4043,428.7948)"
           id="g184"><path
             id="path186"
             style="fill:#373535;fill-opacity:1;fill-rule:nonzero;stroke:none"
             d="m 0,0 c 1.995,-2.097 4.469,-2.256 6.263,-5.135 0.1,-0.188 0.115,-0.55 0.043,-0.695 -0.637,-1.88 -1.201,-3.659 -2.069,-5.149 0.55,1.432 1.143,2.894 1.707,4.325 -0.766,-1.851 -1.446,-3.818 -2.314,-5.554 -3.732,-3.862 -7.955,-5.598 -12.236,-7.536 -1.954,-0.853 -3.833,-1.663 -5.772,-2.111 -2.632,-0.608 -10.674,-2.33 -12.569,-1.867 l -7.869,7.015 c 1.736,-2.604 13.293,-4.209 20.395,-1.041 2.502,1.099 5.047,1.577 7.622,2.661 4.166,1.751 8.158,3.631 11.904,7.117 0.347,0.289 0.564,0.868 0.839,1.316 -0.564,-1.447 -1.157,-2.893 -1.707,-4.325 0.68,1.707 1.143,3.732 2.126,5.106 -0.621,-1.475 -1.229,-2.936 -1.837,-4.397 -1.403,3.443 -4.397,3.298 -6.364,5.626 z" /></g><g
           transform="translate(222.4043,428.7948)"
           id="g188"><path
             id="path190"
             style="fill:none;stroke:#373535;stroke-width:0.889;stroke-linecap:butt;stroke-linejoin:miter;stroke-miterlimit:4;stroke-dasharray:none;stroke-opacity:1"
             d="m 0,0 c 1.995,-2.097 4.469,-2.256 6.263,-5.135 0.1,-0.188 0.115,-0.55 0.043,-0.695 -0.637,-1.88 -1.201,-3.659 -2.069,-5.149 0.55,1.432 1.143,2.894 1.707,4.325 -0.766,-1.851 -1.446,-3.818 -2.314,-5.554 -3.732,-3.862 -7.955,-5.598 -12.236,-7.536 -1.954,-0.853 -3.833,-1.663 -5.772,-2.111 -2.632,-0.608 -10.674,-2.33 -12.569,-1.867 l -7.869,7.015 c 1.736,-2.604 13.293,-4.209 20.395,-1.041 2.502,1.099 5.047,1.577 7.622,2.661 4.166,1.751 8.158,3.631 11.904,7.117 0.347,0.289 0.564,0.868 0.839,1.316 -0.564,-1.447 -1.157,-2.893 -1.707,-4.325 0.68,1.707 1.143,3.732 2.126,5.106 -0.621,-1.475 -1.229,-2.936 -1.837,-4.397 -1.403,3.443 -4.397,3.298 -6.364,5.626 z" /></g><g
           transform="translate(238.9502,450.9105)"
           id="g192"><path
             id="path194"
             style="fill:#373535;fill-opacity:1;fill-rule:nonzero;stroke:none"
             d="m 0,0 c -0.028,-3.096 0.897,-5.729 1.635,-8.433 -0.304,-2.979 -0.651,-6.075 -1.952,-8.404 -1.216,-2.14 -2.372,-3.847 -3.805,-5.395 -1.808,-1.981 -3.659,-3.63 -5.815,-3.977 -0.346,-0.059 -0.766,-0.579 -1.07,0.925 l 2.474,3.617 c 0.101,-0.275 0.173,-0.738 0.274,-0.753 2.676,-0.492 5.164,2.213 7.392,4.628 -0.637,-0.896 -1.273,-1.807 -1.895,-2.718 1.143,2.328 1.765,5.409 1.823,8.476 0.028,0.824 -0.348,1.692 -0.637,2.487 -0.637,1.78 -0.839,3.862 -0.925,5.931 z" /></g><g
           transform="translate(238.9502,450.9105)"
           id="g196"><path
             id="path198"
             style="fill:none;stroke:#373535;stroke-width:0.889;stroke-linecap:butt;stroke-linejoin:miter;stroke-miterlimit:4;stroke-dasharray:none;stroke-opacity:1"
             d="m 0,0 c -0.028,-3.096 0.897,-5.729 1.635,-8.433 -0.304,-2.979 -0.651,-6.075 -1.952,-8.404 -1.216,-2.14 -2.372,-3.847 -3.805,-5.395 -1.808,-1.981 -3.659,-3.63 -5.815,-3.977 -0.346,-0.059 -0.766,-0.579 -1.07,0.925 l 2.474,3.617 c 0.101,-0.275 0.173,-0.738 0.274,-0.753 2.676,-0.492 5.164,2.213 7.392,4.628 -0.637,-0.896 -1.273,-1.807 -1.895,-2.718 1.143,2.328 1.765,5.409 1.823,8.476 0.028,0.824 -0.348,1.692 -0.637,2.487 -0.637,1.78 -0.839,3.862 -0.925,5.931 z" /></g><g
           transform="translate(249.2207,438.746)"
           id="g200"><path
             id="path202"
             style="fill:#373535;fill-opacity:1;fill-rule:nonzero;stroke:none"
             d="m 0,0 c -2.156,-0.926 -4.325,-2.025 -5.931,-4.86 -1.692,-2.98 -3.008,-6.278 -4.903,-8.982 -3.096,-4.383 -6.755,-6.697 -10.645,-6.972 l -2.113,-4.311 c 2.647,0.362 5.237,1.201 7.623,3.486 1.576,1.476 2.951,3.139 4.209,5.324 1.36,2.328 2.402,4.816 3.732,7.144 1.62,2.835 3.818,3.949 5.916,4.89 z" /></g><g
           transform="translate(249.2207,438.746)"
           id="g204"><path
             id="path206"
             style="fill:none;stroke:#373535;stroke-width:0.889;stroke-linecap:butt;stroke-linejoin:miter;stroke-miterlimit:4;stroke-dasharray:none;stroke-opacity:1"
             d="m 0,0 c -2.156,-0.926 -4.325,-2.025 -5.931,-4.86 -1.692,-2.98 -3.008,-6.278 -4.903,-8.982 -3.096,-4.383 -6.755,-6.697 -10.645,-6.972 l -2.113,-4.311 c 2.647,0.362 5.237,1.201 7.623,3.486 1.576,1.476 2.951,3.139 4.209,5.324 1.36,2.328 2.402,4.816 3.732,7.144 1.62,2.835 3.818,3.949 5.916,4.89 z" /></g><g
           transform="translate(254.8906,433.076)"
           id="g208"><path
             id="path210"
             style="fill:#373535;fill-opacity:1;fill-rule:nonzero;stroke:none"
             d="m 0,0 c -4.021,-8.491 -8.795,-15.853 -15,-20.235 -5.67,-3.964 -11.296,-5.873 -17.183,-5.555 l 2.516,3.587 c 8.81,0.029 18.022,3.66 24.865,13.64 -0.188,-0.26 -0.434,-0.492 -0.622,-0.738 1.07,1.751 2.082,3.602 2.906,5.699 z" /></g><g
           transform="translate(254.8906,433.076)"
           id="g212"><path
             id="path214"
             style="fill:none;stroke:#373535;stroke-width:0.889;stroke-linecap:butt;stroke-linejoin:miter;stroke-miterlimit:4;stroke-dasharray:none;stroke-opacity:1"
             d="m 0,0 c -4.021,-8.491 -8.795,-15.853 -15,-20.235 -5.67,-3.964 -11.296,-5.873 -17.183,-5.555 l 2.516,3.587 c 8.81,0.029 18.022,3.66 24.865,13.64 -0.188,-0.26 -0.434,-0.492 -0.622,-0.738 1.07,1.751 2.082,3.602 2.906,5.699 z" /></g><g
           transform="translate(223.3301,412.016)"
           id="g216"><path
             id="path218"
             style="fill:#373535;fill-opacity:1;fill-rule:nonzero;stroke:none"
             d="m 0,0 c 0.766,-1.099 1.677,-1.794 2.313,-3.139 -0.303,-2.257 -1.605,-3.92 -2.545,-5.829 -1.548,-0.853 -3.125,-1.186 -4.73,-1.634 -0.564,1.215 -0.26,2.907 0.275,3.962 0.94,1.925 1.62,3.935 2.806,5.526 0.81,1.027 1.735,1.186 2.618,1.765 -1.216,-3.183 -2.835,-5.424 -4.629,-7.796 -3.456,-4.571 -6.884,-8.289 -10.76,-11.383 -5.7,-4.542 -12.107,-5.497 -18.197,-3.443 l -9.589,4.513 c 5.235,-1.708 22.361,-1.678 27.423,1.547 5.858,3.747 10.993,9.778 15.752,16.562 C 0,-0.81 -0.651,-2.401 -1.534,-3.63 -2.271,-4.527 -3.212,-4.455 -3.978,-5.396 -4.296,-5.743 -4.47,-6.206 -4.687,-6.64 c 0.65,1.346 1.301,2.648 1.967,3.993 -0.42,-0.983 -0.666,-2.574 -0.144,-3.63 1.648,0.578 3.385,0.506 4.946,1.967 -0.68,-1.331 -1.359,-2.691 -2.04,-4.022 0.044,0.319 0.246,0.637 0.16,0.868 -0.564,1.505 -1.548,2.04 -2.271,3.154 z" /></g><g
           transform="translate(223.3301,412.016)"
           id="g220"><path
             id="path222"
             style="fill:none;stroke:#373535;stroke-width:0.889;stroke-linecap:butt;stroke-linejoin:miter;stroke-miterlimit:4;stroke-dasharray:none;stroke-opacity:1"
             d="m 0,0 c 0.766,-1.099 1.677,-1.794 2.313,-3.139 -0.303,-2.257 -1.605,-3.92 -2.545,-5.829 -1.548,-0.853 -3.125,-1.186 -4.73,-1.634 -0.564,1.215 -0.26,2.907 0.275,3.962 0.94,1.925 1.62,3.935 2.806,5.526 0.81,1.027 1.735,1.186 2.618,1.765 -1.216,-3.183 -2.835,-5.424 -4.629,-7.796 -3.456,-4.571 -6.884,-8.289 -10.76,-11.383 -5.7,-4.542 -12.107,-5.497 -18.197,-3.443 l -9.589,4.513 c 5.235,-1.708 22.361,-1.678 27.423,1.547 5.858,3.747 10.993,9.778 15.752,16.562 C 0,-0.81 -0.651,-2.401 -1.534,-3.63 -2.271,-4.527 -3.212,-4.455 -3.978,-5.396 -4.296,-5.743 -4.47,-6.206 -4.687,-6.64 c 0.65,1.346 1.301,2.648 1.967,3.993 -0.42,-0.983 -0.666,-2.574 -0.144,-3.63 1.648,0.578 3.385,0.506 4.946,1.967 -0.68,-1.331 -1.359,-2.691 -2.04,-4.022 0.044,0.319 0.246,0.637 0.16,0.868 -0.564,1.505 -1.548,2.04 -2.271,3.154 z" /></g><g
           transform="translate(215.938,451.85)"
           id="g224"><path
             id="path226"
             style="fill:#373535;fill-opacity:1;fill-rule:nonzero;stroke:none"
             d="M 0,0 C 2.228,-3.761 5.439,-0.969 7.363,0.029 9.822,1.36 11.167,5.554 12.772,8.723 12.165,7.435 11.529,6.09 10.877,4.788 c 0.998,1.967 2.098,3.775 2.763,6.176 0.434,1.504 0.608,3.154 1.041,4.686 -0.896,-1.634 -1.75,-3.225 -2.43,-5.105 0.623,1.331 1.273,2.69 1.938,4.036 -1.128,-2.199 -2.835,-3.544 -4.6,-2.908 -1.054,0.361 -2.082,1.215 -2.443,2.994 -0.551,2.56 0.246,5.135 0.68,7.594 -0.609,-1.287 -1.231,-2.546 -1.852,-3.833 0.752,1.533 1.504,3.066 2.213,4.614 -0.593,-1.302 -1.2,-2.56 -1.794,-3.833 1.722,3.384 4.398,4.194 6.582,6.234 l 2.126,4.296 C 13.365,28.278 11.557,27.396 9.894,25.573 8.187,23.722 7.217,20.887 5.974,18.428 6.595,19.715 7.217,20.974 7.826,22.261 5.974,19.368 4.441,14.797 5.034,10.357 6.046,6.943 8.737,6.408 10.545,8.187 c 1.706,1.707 2.82,4.542 3.962,7.188 C 12.83,13.206 12.251,9.879 11.557,6.654 11.413,6.09 11.253,5.525 11.022,5.048 11.658,6.408 12.309,7.724 12.959,9.084 12.135,7.464 11.34,5.713 10.545,4.036 11.152,5.337 11.759,6.639 12.337,7.941 11.529,6.408 10.674,4.86 9.46,4.311 7.507,3.457 3.616,0.897 2.358,4.311 1.1,7.724 2.04,74.252 2.04,74.252 L -0.723,67.924 C -0.723,67.924 -1.417,2.402 0,0" /></g><g
           transform="translate(215.938,451.85)"
           id="g228"><path
             id="path230"
             style="fill:none;stroke:#373535;stroke-width:0.889;stroke-linecap:butt;stroke-linejoin:miter;stroke-miterlimit:4;stroke-dasharray:none;stroke-opacity:1"
             d="M 0,0 C 2.228,-3.761 5.439,-0.969 7.363,0.029 9.822,1.36 11.167,5.554 12.772,8.723 12.165,7.435 11.529,6.09 10.877,4.788 c 0.998,1.967 2.098,3.775 2.763,6.176 0.434,1.504 0.608,3.154 1.041,4.686 -0.896,-1.634 -1.75,-3.225 -2.43,-5.105 0.623,1.331 1.273,2.69 1.938,4.036 -1.128,-2.199 -2.835,-3.544 -4.6,-2.908 -1.054,0.361 -2.082,1.215 -2.443,2.994 -0.551,2.56 0.246,5.135 0.68,7.594 -0.609,-1.287 -1.231,-2.546 -1.852,-3.833 0.752,1.533 1.504,3.066 2.213,4.614 -0.593,-1.302 -1.2,-2.56 -1.794,-3.833 1.722,3.384 4.398,4.194 6.582,6.234 l 2.126,4.296 C 13.365,28.278 11.557,27.396 9.894,25.573 8.187,23.722 7.217,20.887 5.974,18.428 6.595,19.715 7.217,20.974 7.826,22.261 5.974,19.368 4.441,14.797 5.034,10.357 6.046,6.943 8.737,6.408 10.545,8.187 c 1.706,1.707 2.82,4.542 3.962,7.188 C 12.83,13.206 12.251,9.879 11.557,6.654 11.413,6.09 11.253,5.525 11.022,5.048 11.658,6.408 12.309,7.724 12.959,9.084 12.135,7.464 11.34,5.713 10.545,4.036 11.152,5.337 11.759,6.639 12.337,7.941 11.529,6.408 10.674,4.86 9.46,4.311 7.507,3.457 3.616,0.897 2.358,4.311 1.1,7.724 2.04,74.252 2.04,74.252 L -0.723,67.924 C -0.723,67.924 -1.417,2.402 0,0 Z" /></g><g
           transform="translate(201.1128,471.3187)"
           id="g232"><path
             id="path234"
             style="fill:#373535;fill-opacity:1;fill-rule:nonzero;stroke:none"
             d="m 0,0 c 0.072,-7.752 0.058,-15.534 0.405,-23.301 0.752,-1.808 2.3,-2.271 3.529,-1.88 0.694,0.217 1.374,0.65 1.88,1.533 -0.622,-1.316 -1.287,-2.633 -1.923,-3.935 0.867,1.707 1.706,3.414 2.618,5.091 -0.637,-1.272 -1.273,-2.545 -1.881,-3.818 0.969,2.025 1.881,4.123 3.095,5.727 -0.636,-1.258 -1.287,-2.53 -1.938,-3.76 1.302,2.17 2.213,5.179 3.833,6.769 -0.593,-1.171 -1.186,-2.358 -1.793,-3.543 0.911,1.75 1.721,3.587 2.69,5.25 -0.81,-2.603 -1.938,-4.787 -3.139,-6.856 0.651,1.287 1.288,2.532 1.924,3.819 -0.738,-2.011 -1.677,-3.761 -2.589,-5.569 0.622,1.273 1.287,2.517 1.909,3.79 -0.26,-1.809 -1.07,-3.4 -0.997,-5.366 1.547,-0.117 3.398,-0.261 4.396,2.213 -0.68,-1.303 -1.302,-2.547 -1.981,-3.863 0.694,2.184 1.374,5.41 0.404,7.652 -0.983,0.578 -2.183,0.535 -3.037,-0.607 0.781,1.504 1.447,3.124 2.372,4.469 0.665,0.926 1.562,1.027 2.329,1.808 1.244,1.259 2.227,2.864 3.284,4.47 -0.608,-1.23 -1.23,-2.445 -1.823,-3.66 0.044,0.115 0.087,0.246 0.159,0.39 l 2.111,4.296 c -2.126,-5.192 -4.874,-9.734 -8.432,-11.773 0.998,3.239 2.893,6.451 5.15,4.917 0.983,-2.169 0.332,-5.091 -0.304,-7.232 -0.839,-2.762 -1.939,-5.294 -3.515,-6.812 -0.969,-0.912 -2.127,-0.666 -3.226,-0.579 0.304,4.223 1.823,7.739 3.515,10.631 -0.665,-1.301 -1.316,-2.575 -1.996,-3.862 0.853,2.155 1.852,4.065 2.893,5.96 -0.68,-1.346 -1.331,-2.633 -1.967,-3.935 0.115,0.506 0.274,0.955 0.477,1.375 -0.217,-0.319 -0.405,-0.622 -0.607,-0.926 0.607,1.185 1.2,2.372 1.793,3.543 -1.098,-2.574 -2.473,-4.613 -3.833,-6.769 0.651,1.288 1.302,2.517 1.938,3.76 -0.997,-1.995 -1.851,-4.165 -3.095,-5.727 0.608,1.273 1.244,2.546 1.881,3.818 -0.883,-1.721 -1.519,-3.745 -2.618,-5.091 0.636,1.302 1.301,2.619 1.923,3.935 -0.94,-1.75 -1.577,-4.022 -2.849,-5.193 -1.476,-1.302 -3.226,-0.853 -4.571,0.824 -0.535,7.797 -0.347,15.825 -0.462,23.707 z" /></g><g
           transform="translate(201.1128,471.3187)"
           id="g236"><path
             id="path238"
             style="fill:none;stroke:#373535;stroke-width:0.889;stroke-linecap:butt;stroke-linejoin:miter;stroke-miterlimit:4;stroke-dasharray:none;stroke-opacity:1"
             d="m 0,0 c 0.072,-7.752 0.058,-15.534 0.405,-23.301 0.752,-1.808 2.3,-2.271 3.529,-1.88 0.694,0.217 1.374,0.65 1.88,1.533 -0.622,-1.316 -1.287,-2.633 -1.923,-3.935 0.867,1.707 1.706,3.414 2.618,5.091 -0.637,-1.272 -1.273,-2.545 -1.881,-3.818 0.969,2.025 1.881,4.123 3.095,5.727 -0.636,-1.258 -1.287,-2.53 -1.938,-3.76 1.302,2.17 2.213,5.179 3.833,6.769 -0.593,-1.171 -1.186,-2.358 -1.793,-3.543 0.911,1.75 1.721,3.587 2.69,5.25 -0.81,-2.603 -1.938,-4.787 -3.139,-6.856 0.651,1.287 1.288,2.532 1.924,3.819 -0.738,-2.011 -1.677,-3.761 -2.589,-5.569 0.622,1.273 1.287,2.517 1.909,3.79 -0.26,-1.809 -1.07,-3.4 -0.997,-5.366 1.547,-0.117 3.398,-0.261 4.396,2.213 -0.68,-1.303 -1.302,-2.547 -1.981,-3.863 0.694,2.184 1.374,5.41 0.404,7.652 -0.983,0.578 -2.183,0.535 -3.037,-0.607 0.781,1.504 1.447,3.124 2.372,4.469 0.665,0.926 1.562,1.027 2.329,1.808 1.244,1.259 2.227,2.864 3.284,4.47 -0.608,-1.23 -1.23,-2.445 -1.823,-3.66 0.044,0.115 0.087,0.246 0.159,0.39 l 2.111,4.296 c -2.126,-5.192 -4.874,-9.734 -8.432,-11.773 0.998,3.239 2.893,6.451 5.15,4.917 0.983,-2.169 0.332,-5.091 -0.304,-7.232 -0.839,-2.762 -1.939,-5.294 -3.515,-6.812 -0.969,-0.912 -2.127,-0.666 -3.226,-0.579 0.304,4.223 1.823,7.739 3.515,10.631 -0.665,-1.301 -1.316,-2.575 -1.996,-3.862 0.853,2.155 1.852,4.065 2.893,5.96 -0.68,-1.346 -1.331,-2.633 -1.967,-3.935 0.115,0.506 0.274,0.955 0.477,1.375 -0.217,-0.319 -0.405,-0.622 -0.607,-0.926 0.607,1.185 1.2,2.372 1.793,3.543 -1.098,-2.574 -2.473,-4.613 -3.833,-6.769 0.651,1.288 1.302,2.517 1.938,3.76 -0.997,-1.995 -1.851,-4.165 -3.095,-5.727 0.608,1.273 1.244,2.546 1.881,3.818 -0.883,-1.721 -1.519,-3.745 -2.618,-5.091 0.636,1.302 1.301,2.619 1.923,3.935 -0.94,-1.75 -1.577,-4.022 -2.849,-5.193 -1.476,-1.302 -3.226,-0.853 -4.571,0.824 -0.535,7.797 -0.347,15.825 -0.462,23.707 z" /></g><g
           transform="translate(229.1299,454.2367)"
           id="g240"><path
             id="path242"
             style="fill:#373535;fill-opacity:1;fill-rule:nonzero;stroke:none"
             d="M 0,0 C 1.765,-3.601 3.558,-7.145 5.12,-11.05 3.833,-19.888 -2.199,-22.969 -6.812,-24.299 l 2.096,4.266 c 3.081,0.912 6.205,2.633 8.953,5.366 -0.621,-1.258 -1.229,-2.56 -1.865,-3.803 0.419,0.91 0.868,2.097 0.578,3.037 -1.359,4.223 -3.283,7.521 -5.048,11.094 z" /></g><g
           transform="translate(229.1299,454.2367)"
           id="g244"><path
             id="path246"
             style="fill:none;stroke:#373535;stroke-width:0.889;stroke-linecap:butt;stroke-linejoin:miter;stroke-miterlimit:4;stroke-dasharray:none;stroke-opacity:1"
             d="M 0,0 C 1.765,-3.601 3.558,-7.145 5.12,-11.05 3.833,-19.888 -2.199,-22.969 -6.812,-24.299 l 2.096,4.266 c 3.081,0.912 6.205,2.633 8.953,5.366 -0.621,-1.258 -1.229,-2.56 -1.865,-3.803 0.419,0.91 0.868,2.097 0.578,3.037 -1.359,4.223 -3.283,7.521 -5.048,11.094 z" /></g><g
           transform="translate(101.2881,338.2489)"
           id="g248"><path
             id="path250"
             style="fill:none;stroke:#373535;stroke-width:3.70300007;stroke-linecap:butt;stroke-linejoin:miter;stroke-miterlimit:4;stroke-dasharray:none;stroke-opacity:1"
             d="M 0,0 33.325,-34.498 -10.732,-8.303" /></g><g
           transform="translate(124.5024,343.4994)"
           id="g252"><path
             id="path254"
             style="fill:none;stroke:#373535;stroke-width:3.70300007;stroke-linecap:butt;stroke-linejoin:miter;stroke-miterlimit:4;stroke-dasharray:none;stroke-opacity:1"
             d="M 0,0 10.111,-39.748 -11.325,-2.17" /></g><g
           transform="translate(135.8281,344.5692)"
           id="g256"><path
             id="path258"
             style="fill:none;stroke:#373535;stroke-width:3.70300007;stroke-linecap:butt;stroke-linejoin:miter;stroke-miterlimit:4;stroke-dasharray:none;stroke-opacity:1"
             d="M 0,0 0.274,-40.311" /></g><g
           transform="translate(136.8701,304.1127)"
           id="g260"><path
             id="path262"
             style="fill:none;stroke:#373535;stroke-width:3.70300007;stroke-linecap:butt;stroke-linejoin:miter;stroke-miterlimit:4;stroke-dasharray:none;stroke-opacity:1"
             d="M 0,0 10.92,39.141" /></g><g
           transform="translate(158.7246,340.9393)"
           id="g264"><path
             id="path266"
             style="fill:none;stroke:#373535;stroke-width:3.70300007;stroke-linecap:butt;stroke-linejoin:miter;stroke-miterlimit:4;stroke-dasharray:none;stroke-opacity:1"
             d="M 0,0 -21.392,-36.681" /></g><g
           transform="translate(169.9712,337.077)"
           id="g268"><path
             id="path270"
             style="fill:none;stroke:#373535;stroke-width:3.70300007;stroke-linecap:butt;stroke-linejoin:miter;stroke-miterlimit:4;stroke-dasharray:none;stroke-opacity:1"
             d="M 0,0 -31.699,-32.198" /></g><g
           transform="translate(181.9766,328.8759)"
           id="g272"><path
             id="path274"
             style="fill:none;stroke:#373535;stroke-width:3.70300007;stroke-linecap:butt;stroke-linejoin:miter;stroke-miterlimit:4;stroke-dasharray:none;stroke-opacity:1"
             d="M 0,0 -45.874,-25.53" /></g></g></g></g></svg>